<svg width="159" height="167" viewBox="0 0 159 167" fill="none" xmlns="http://www.w3.org/2000/svg">
<g clip-path="url(#clip0_190_603)">
<path d="M105.014 91.1924L88.6519 13.0909C88.0002 9.98023 84.9438 7.95541 81.8252 8.56838L67.4322 11.3974C64.3136 12.0104 62.3138 15.029 62.9655 18.1397L79.328 96.2412C79.9797 99.3519 83.0361 101.377 86.1547 100.764L100.548 97.9347C103.666 97.3217 105.666 94.3031 105.014 91.1924Z" fill="#C49A6C" stroke="#C49A6C" stroke-miterlimit="10"/>
<path opacity="0.9" d="M96.5089 65.1563L91.9085 43.1979C91.4108 40.8221 89.0766 39.2757 86.6948 39.7439L75.4958 41.9451C73.1141 42.4133 71.5868 44.7187 72.0845 47.0944L76.6849 69.0529C77.1826 71.4286 79.5168 72.975 81.8986 72.5068L93.0976 70.3056C95.4793 69.8375 97.0066 67.5321 96.5089 65.1563Z" fill="#B79064"/>
<g opacity="0.3">
<mask id="mask0_190_603" style="mask-type:luminance" maskUnits="userSpaceOnUse" x="63" y="10" width="42" height="90">
<path d="M86.8895 10.8008L63.4672 15.4045L81.035 99.2594L104.457 94.6556L86.8895 10.8008Z" fill="white"/>
</mask>
<g mask="url(#mask0_190_603)">
<path d="M105.236 82.7379C105.792 83.1067 106.539 82.96 106.903 82.4101C107.268 81.8603 107.112 81.1155 106.555 80.7467C105.998 80.3779 105.251 80.5246 104.887 81.0745C104.523 81.6243 104.679 82.3691 105.236 82.7379Z" fill="#FFE8BF"/>
<path d="M104.089 77.2629C104.645 77.6318 105.392 77.485 105.756 76.9351C106.121 76.3853 105.964 75.6405 105.408 75.2717C104.851 74.9029 104.104 75.0496 103.74 75.5995C103.376 76.1494 103.532 76.8941 104.089 77.2629Z" fill="#FFE8BF"/>
<path d="M102.938 71.7934C103.495 72.1623 104.241 72.0155 104.605 71.4657C104.97 70.9158 104.814 70.1711 104.257 69.8022C103.7 69.4334 102.954 69.5801 102.589 70.13C102.225 70.6799 102.381 71.4246 102.938 71.7934Z" fill="#FFE8BF"/>
<path d="M101.797 66.3223C102.353 66.6911 103.1 66.5443 103.464 65.9945C103.828 65.4446 103.672 64.6999 103.116 64.331C102.559 63.9622 101.812 64.109 101.448 64.6588C101.084 65.2087 101.24 65.9534 101.797 66.3223Z" fill="#FFE8BF"/>
<path d="M100.649 60.8472C101.206 61.216 101.953 61.0692 102.317 60.5194C102.681 59.9695 102.525 59.2248 101.969 58.8559C101.412 58.4871 100.665 58.6339 100.301 59.1837C99.9367 59.7336 100.093 60.4783 100.649 60.8472Z" fill="#FFE8BF"/>
<path d="M99.5024 55.3721C100.059 55.7409 100.806 55.5941 101.17 55.0443C101.534 54.4944 101.378 53.7497 100.822 53.3808C100.265 53.012 99.5182 53.1588 99.1539 53.7086C98.7897 54.2585 98.9457 55.0032 99.5024 55.3721Z" fill="#FFE8BF"/>
<path d="M98.3554 49.897C98.9121 50.2658 99.6588 50.119 100.023 49.5692C100.387 49.0193 100.231 48.2746 99.6745 47.9057C99.1178 47.5369 98.3712 47.6837 98.0069 48.2335C97.6426 48.7834 97.7986 49.5281 98.3554 49.897Z" fill="#FFE8BF"/>
<path d="M97.2046 44.4276C97.7613 44.7964 98.5079 44.6497 98.8722 44.0998C99.2365 43.55 99.0805 42.8052 98.5237 42.4364C97.967 42.0675 97.2204 42.2143 96.8561 42.7642C96.4918 43.314 96.6478 44.0588 97.2046 44.4276Z" fill="#FFE8BF"/>
<path d="M96.0633 38.9563C96.62 39.3251 97.3667 39.1784 97.7309 38.6285C98.0952 38.0786 97.9392 37.3339 97.3824 36.9651C96.8257 36.5962 96.0791 36.743 95.7148 37.2929C95.3505 37.8427 95.5066 38.5875 96.0633 38.9563Z" fill="#FFE8BF"/>
<path d="M94.9162 33.4813C95.473 33.8501 96.2196 33.7034 96.5839 33.1535C96.9482 32.6037 96.7921 31.8589 96.2354 31.4901C95.6787 31.1213 94.932 31.268 94.5678 31.8179C94.2035 32.3677 94.3595 33.1125 94.9162 33.4813Z" fill="#FFE8BF"/>
<path d="M93.7692 28.0062C94.3259 28.375 95.0726 28.2283 95.4368 27.6784C95.8011 27.1286 95.6451 26.3838 95.0884 26.015C94.5316 25.6462 93.785 25.7929 93.4207 26.3428C93.0564 26.8926 93.2125 27.6374 93.7692 28.0062Z" fill="#FFE8BF"/>
<path d="M92.6222 22.5311C93.1789 22.8999 93.9255 22.7532 94.2898 22.2033C94.6541 21.6535 94.4981 20.9087 93.9413 20.5399C93.3846 20.1711 92.6379 20.3178 92.2737 20.8677C91.9094 21.4175 92.0654 22.1623 92.6222 22.5311Z" fill="#FFE8BF"/>
<path d="M91.4751 17.056C92.0319 17.4248 92.7785 17.2781 93.1428 16.7282C93.507 16.1784 93.351 15.4336 92.7943 15.0648C92.2375 14.696 91.4909 14.8427 91.1266 15.3926C90.7624 15.9424 90.9184 16.6872 91.4751 17.056Z" fill="#FFE8BF"/>
<path d="M102.365 94.7034C102.922 95.0722 103.668 94.9254 104.032 94.3756C104.397 93.8257 104.241 93.081 103.684 92.7121C103.127 92.3433 102.381 92.4901 102.016 93.0399C101.652 93.5898 101.808 94.3345 102.365 94.7034Z" fill="#FFE8BF"/>
<path d="M101.218 89.2283C101.775 89.5971 102.521 89.4503 102.885 88.9005C103.25 88.3506 103.094 87.6059 102.537 87.237C101.98 86.8682 101.234 87.015 100.869 87.5648C100.505 88.1147 100.661 88.8594 101.218 89.2283Z" fill="#FFE8BF"/>
<path d="M100.071 83.7532C100.627 84.122 101.374 83.9752 101.738 83.4254C102.103 82.8755 101.947 82.1308 101.39 81.7619C100.833 81.3931 100.087 81.5399 99.7222 82.0897C99.358 82.6396 99.514 83.3843 100.071 83.7532Z" fill="#FFE8BF"/>
<path d="M98.9237 78.2781C99.4804 78.6469 100.227 78.5001 100.591 77.9503C100.956 77.4004 100.8 76.6557 100.243 76.2868C99.6861 75.918 98.9395 76.0648 98.5752 76.6146C98.2109 77.1645 98.3669 77.9092 98.9237 78.2781Z" fill="#FFE8BF"/>
<path d="M97.7824 72.8068C98.3392 73.1756 99.0858 73.0288 99.4501 72.479C99.8143 71.9291 99.6583 71.1844 99.1016 70.8155C98.5448 70.4467 97.7982 70.5935 97.4339 71.1433C97.0696 71.6932 97.2257 72.4379 97.7824 72.8068Z" fill="#FFE8BF"/>
<path d="M96.6316 67.3374C97.1883 67.7062 97.935 67.5595 98.2992 67.0096C98.6635 66.4597 98.5075 65.715 97.9507 65.3462C97.394 64.9773 96.6474 65.1241 96.2831 65.674C95.9188 66.2238 96.0749 66.9686 96.6316 67.3374Z" fill="#FFE8BF"/>
<path d="M95.4845 61.8623C96.0413 62.2311 96.7879 62.0844 97.1522 61.5345C97.5165 60.9846 97.3604 60.2399 96.8037 59.8711C96.247 59.5022 95.5003 59.649 95.1361 60.1989C94.7718 60.7487 94.9278 61.4935 95.4845 61.8623Z" fill="#FFE8BF"/>
<path d="M94.3375 56.3873C94.8943 56.7561 95.6409 56.6094 96.0052 56.0595C96.3694 55.5097 96.2134 54.7649 95.6567 54.3961C95.0999 54.0273 94.3533 54.174 93.989 54.7239C93.6247 55.2737 93.7808 56.0185 94.3375 56.3873Z" fill="#FFE8BF"/>
<path d="M93.1905 50.9122C93.7472 51.281 94.4938 51.1343 94.8581 50.5844C95.2224 50.0346 95.0664 49.2898 94.5096 48.921C93.9529 48.5522 93.2062 48.6989 92.842 49.2488C92.4777 49.7986 92.6337 50.5434 93.1905 50.9122Z" fill="#FFE8BF"/>
<path d="M92.0492 45.4409C92.6059 45.8097 93.3526 45.663 93.7168 45.1131C94.0811 44.5633 93.9251 43.8185 93.3683 43.4497C92.8116 43.0809 92.065 43.2276 91.7007 43.7775C91.3364 44.3273 91.4924 45.0721 92.0492 45.4409Z" fill="#FFE8BF"/>
<path d="M90.9021 39.9658C91.4589 40.3346 92.2055 40.1879 92.5698 39.638C92.9341 39.0882 92.778 38.3434 92.2213 37.9746C91.6645 37.6058 90.9179 37.7525 90.5536 38.3024C90.1894 38.8522 90.3454 39.597 90.9021 39.9658Z" fill="#FFE8BF"/>
<path d="M89.7513 34.4964C90.3081 34.8653 91.0547 34.7185 91.419 34.1687C91.7832 33.6188 91.6272 32.8741 91.0705 32.5052C90.5137 32.1364 89.7671 32.2832 89.4028 32.833C89.0386 33.3829 89.1946 34.1276 89.7513 34.4964Z" fill="#FFE8BF"/>
<path d="M88.6043 29.0213C89.161 29.3902 89.9077 29.2434 90.2719 28.6936C90.6362 28.1437 90.4802 27.399 89.9234 27.0301C89.3667 26.6613 88.6201 26.8081 88.2558 27.3579C87.8915 27.9078 88.0475 28.6525 88.6043 29.0213Z" fill="#FFE8BF"/>
<path d="M87.4572 23.5463C88.014 23.9151 88.7606 23.7683 89.1249 23.2185C89.4892 22.6686 89.3331 21.9239 88.7764 21.555C88.2197 21.1862 87.473 21.333 87.1088 21.8828C86.7445 22.4327 86.9005 23.1774 87.4572 23.5463Z" fill="#FFE8BF"/>
<path d="M86.316 18.0751C86.8727 18.4439 87.6193 18.2971 87.9836 17.7473C88.3479 17.1974 88.1918 16.4527 87.6351 16.0838C87.0784 15.715 86.3317 15.8618 85.9675 16.4116C85.6032 16.9615 85.7592 17.7062 86.316 18.0751Z" fill="#FFE8BF"/>
<path d="M85.1689 12.6C85.7257 12.9688 86.4723 12.822 86.8366 12.2722C87.2008 11.7223 87.0448 10.9776 86.4881 10.6087C85.9313 10.2399 85.1847 10.3867 84.8204 10.9365C84.4562 11.4864 84.6122 12.2311 85.1689 12.6Z" fill="#FFE8BF"/>
<path d="M98.3507 101.188C98.9075 101.557 99.6541 101.41 100.018 100.86C100.383 100.31 100.227 99.5655 99.6699 99.1966C99.1131 98.8278 98.3665 98.9746 98.0022 99.5244C97.6379 100.074 97.794 100.819 98.3507 101.188Z" fill="#FFE8BF"/>
<path d="M97.2037 95.7128C97.7604 96.0816 98.507 95.9348 98.8713 95.385C99.2356 94.8351 99.0795 94.0904 98.5228 93.7215C97.9661 93.3527 97.2194 93.4995 96.8552 94.0493C96.4909 94.5992 96.6469 95.3439 97.2037 95.7128Z" fill="#FFE8BF"/>
<path d="M96.0529 90.2434C96.6096 90.6122 97.3562 90.4655 97.7205 89.9156C98.0848 89.3658 97.9287 88.621 97.372 88.2522C96.8153 87.8833 96.0686 88.0301 95.7044 88.58C95.3401 89.1298 95.4961 89.8746 96.0529 90.2434Z" fill="#FFE8BF"/>
<path d="M94.9058 84.7683C95.4625 85.1371 96.2092 84.9904 96.5734 84.4405C96.9377 83.8907 96.7817 83.1459 96.225 82.7771C95.6682 82.4082 94.9216 82.555 94.5573 83.1049C94.193 83.6547 94.3491 84.3995 94.9058 84.7683Z" fill="#FFE8BF"/>
<path d="M93.7645 79.2971C94.3213 79.6659 95.0679 79.5192 95.4322 78.9693C95.7964 78.4195 95.6404 77.6747 95.0837 77.3059C94.5269 76.9371 93.7803 77.0838 93.416 77.6337C93.0518 78.1835 93.2078 78.9283 93.7645 79.2971Z" fill="#FFE8BF"/>
<path d="M92.6175 73.822C93.1742 74.1908 93.9209 74.0441 94.2851 73.4942C94.6494 72.9444 94.4934 72.1996 93.9366 71.8308C93.3799 71.462 92.6333 71.6087 92.269 72.1586C91.9047 72.7084 92.0607 73.4532 92.6175 73.822Z" fill="#FFE8BF"/>
<path d="M91.4704 68.3469C92.0272 68.7157 92.7738 68.569 93.1381 68.0191C93.5024 67.4693 93.3463 66.7245 92.7896 66.3557C92.2329 65.9869 91.4862 66.1336 91.122 66.6835C90.7577 67.2333 90.9137 67.9781 91.4704 68.3469Z" fill="#FFE8BF"/>
<path d="M90.3234 62.8718C90.8801 63.2406 91.6268 63.0939 91.991 62.544C92.3553 61.9942 92.1993 61.2494 91.6425 60.8806C91.0858 60.5118 90.3392 60.6585 89.9749 61.2084C89.6106 61.7582 89.7667 62.503 90.3234 62.8718Z" fill="#FFE8BF"/>
<path d="M89.1726 57.4025C89.7293 57.7713 90.476 57.6245 90.8402 57.0747C91.2045 56.5248 91.0485 55.7801 90.4917 55.4112C89.935 55.0424 89.1884 55.1892 88.8241 55.739C88.4598 56.2889 88.6159 57.0336 89.1726 57.4025Z" fill="#FFE8BF"/>
<path d="M88.0313 51.9311C88.5881 52.3 89.3347 52.1532 89.699 51.6034C90.0632 51.0535 89.9072 50.3088 89.3505 49.9399C88.7937 49.5711 88.0471 49.7178 87.6828 50.2677C87.3185 50.8176 87.4746 51.5623 88.0313 51.9311Z" fill="#FFE8BF"/>
<path d="M86.8843 46.4562C87.441 46.825 88.1876 46.6782 88.5519 46.1284C88.9162 45.5785 88.7601 44.8338 88.2034 44.4649C87.6467 44.0961 86.9 44.2429 86.5358 44.7927C86.1715 45.3426 86.3275 46.0873 86.8843 46.4562Z" fill="#FFE8BF"/>
<path d="M85.7372 40.9811C86.294 41.3499 87.0406 41.2031 87.4049 40.6533C87.7691 40.1034 87.6131 39.3587 87.0564 38.9898C86.4996 38.621 85.753 38.7678 85.3887 39.3176C85.0245 39.8675 85.1805 40.6122 85.7372 40.9811Z" fill="#FFE8BF"/>
<path d="M84.5902 35.506C85.1469 35.8748 85.8935 35.728 86.2578 35.1782C86.6221 34.6283 86.4661 33.8836 85.9093 33.5147C85.3526 33.1459 84.606 33.2927 84.2417 33.8425C83.8774 34.3924 84.0334 35.1371 84.5902 35.506Z" fill="#FFE8BF"/>
<path d="M83.4394 30.0366C83.9961 30.4054 84.7427 30.2587 85.107 29.7088C85.4713 29.159 85.3153 28.4142 84.7585 28.0454C84.2018 27.6766 83.4551 27.8233 83.0909 28.3732C82.7266 28.923 82.8826 29.6678 83.4394 30.0366Z" fill="#FFE8BF"/>
<path d="M82.2981 24.5653C82.8548 24.9341 83.6015 24.7874 83.9657 24.2375C84.33 23.6877 84.174 22.9429 83.6172 22.5741C83.0605 22.2052 82.3139 22.352 81.9496 22.9019C81.5853 23.4517 81.7413 24.1965 82.2981 24.5653Z" fill="#FFE8BF"/>
<path d="M81.151 19.0902C81.7078 19.459 82.4544 19.3123 82.8187 18.7624C83.183 18.2126 83.0269 17.4678 82.4702 17.099C81.9135 16.7301 81.1668 16.8769 80.8026 17.4268C80.4383 17.9766 80.5943 18.7214 81.151 19.0902Z" fill="#FFE8BF"/>
<path d="M80.004 13.6151C80.5607 13.9839 81.3074 13.8372 81.6716 13.2873C82.0359 12.7375 81.8799 11.9927 81.3231 11.6239C80.7664 11.2551 80.0198 11.4018 79.6555 11.9517C79.2912 12.5015 79.4473 13.2463 80.004 13.6151Z" fill="#FFE8BF"/>
<path d="M92.0387 96.728C92.5955 97.0968 93.3421 96.9501 93.7064 96.4002C94.0707 95.8504 93.9146 95.1056 93.3579 94.7368C92.8012 94.368 92.0545 94.5147 91.6903 95.0646C91.326 95.6144 91.482 96.3592 92.0387 96.728Z" fill="#FFE8BF"/>
<path d="M90.8917 91.2529C91.4484 91.6217 92.1951 91.475 92.5593 90.9251C92.9236 90.3753 92.7676 89.6305 92.2108 89.2617C91.6541 88.8929 90.9075 89.0396 90.5432 89.5895C90.1789 90.1393 90.335 90.8841 90.8917 91.2529Z" fill="#FFE8BF"/>
<path d="M89.7504 85.7817C90.3072 86.1506 91.0538 86.0038 91.4181 85.4539C91.7823 84.9041 91.6263 84.1593 91.0696 83.7905C90.5128 83.4217 89.7662 83.5684 89.4019 84.1183C89.0377 84.6682 89.1937 85.4129 89.7504 85.7817Z" fill="#FFE8BF"/>
<path d="M88.5996 80.3122C89.1564 80.6811 89.903 80.5343 90.2673 79.9845C90.6315 79.4346 90.4755 78.6899 89.9188 78.321C89.362 77.9522 88.6154 78.0989 88.2511 78.6488C87.8868 79.1987 88.0429 79.9434 88.5996 80.3122Z" fill="#FFE8BF"/>
<path d="M87.4526 74.8371C88.0093 75.206 88.7559 75.0592 89.1202 74.5094C89.4845 73.9595 89.3285 73.2148 88.7717 72.8459C88.215 72.4771 87.4683 72.6239 87.1041 73.1737C86.7398 73.7236 86.8958 74.4683 87.4526 74.8371Z" fill="#FFE8BF"/>
<path d="M86.3055 69.3622C86.8623 69.731 87.6089 69.5842 87.9732 69.0344C88.3374 68.4845 88.1814 67.7398 87.6247 67.371C87.0679 67.0021 86.3213 67.1489 85.957 67.6987C85.5928 68.2486 85.7488 68.9933 86.3055 69.3622Z" fill="#FFE8BF"/>
<path d="M85.1585 63.8871C85.7152 64.2559 86.4619 64.1091 86.8261 63.5593C87.1904 63.0094 87.0344 62.2647 86.4776 61.8959C85.9209 61.527 85.1743 61.6738 84.81 62.2236C84.4457 62.7735 84.6017 63.5182 85.1585 63.8871Z" fill="#FFE8BF"/>
<path d="M84.0172 58.4158C84.5739 58.7846 85.3206 58.6378 85.6848 58.088C86.0491 57.5381 85.8931 56.7934 85.3363 56.4245C84.7796 56.0557 84.033 56.2025 83.6687 56.7523C83.3044 57.3022 83.4605 58.0469 84.0172 58.4158Z" fill="#FFE8BF"/>
<path d="M82.8664 52.9464C83.4231 53.3152 84.1698 53.1685 84.534 52.6186C84.8983 52.0688 84.7423 51.324 84.1855 50.9552C83.6288 50.5863 82.8822 50.7331 82.5179 51.283C82.1536 51.8328 82.3096 52.5776 82.8664 52.9464Z" fill="#FFE8BF"/>
<path d="M81.7194 47.4713C82.2761 47.8401 83.0227 47.6934 83.387 47.1435C83.7513 46.5937 83.5952 45.8489 83.0385 45.4801C82.4818 45.1113 81.7351 45.258 81.3709 45.8079C81.0066 46.3577 81.1626 47.1025 81.7194 47.4713Z" fill="#FFE8BF"/>
<path d="M80.5723 41.9962C81.129 42.365 81.8757 42.2183 82.2399 41.6684C82.6042 41.1186 82.4482 40.3738 81.8915 40.005C81.3347 39.6362 80.5881 39.7829 80.2238 40.3328C79.8595 40.8826 80.0156 41.6274 80.5723 41.9962Z" fill="#FFE8BF"/>
<path d="M79.4253 36.5211C79.982 36.8899 80.7286 36.7432 81.0929 36.1933C81.4572 35.6435 81.3012 34.8987 80.7444 34.5299C80.1877 34.1611 79.441 34.3078 79.0768 34.8577C78.7125 35.4075 78.8685 36.1523 79.4253 36.5211Z" fill="#FFE8BF"/>
<path d="M78.284 31.0499C78.8407 31.4187 79.5873 31.272 79.9516 30.7221C80.3159 30.1723 80.1599 29.4275 79.6031 29.0587C79.0464 28.6899 78.2998 28.8366 77.9355 29.3865C77.5712 29.9363 77.7272 30.6811 78.284 31.0499Z" fill="#FFE8BF"/>
<path d="M77.1332 25.5806C77.6899 25.9494 78.4365 25.8026 78.8008 25.2528C79.1651 24.7029 79.0091 23.9582 78.4523 23.5893C77.8956 23.2205 77.1489 23.3673 76.7847 23.9171C76.4204 24.467 76.5764 25.2117 77.1332 25.5806Z" fill="#FFE8BF"/>
<path d="M75.9861 20.1055C76.5429 20.4743 77.2895 20.3275 77.6538 19.7777C78.018 19.2278 77.862 18.4831 77.3053 18.1142C76.7485 17.7454 76.0019 17.8922 75.6376 18.442C75.2734 18.9919 75.4294 19.7366 75.9861 20.1055Z" fill="#FFE8BF"/>
<path d="M74.8391 14.6304C75.3958 14.9992 76.1425 14.8524 76.5067 14.3026C76.871 13.7527 76.715 13.008 76.1582 12.6391C75.6015 12.2703 74.8549 12.4171 74.4906 12.9669C74.1263 13.5168 74.2823 14.2615 74.8391 14.6304Z" fill="#FFE8BF"/>
<path d="M86.8796 97.7471C87.4363 98.1159 88.183 97.9691 88.5472 97.4193C88.9115 96.8694 88.7555 96.1247 88.1987 95.7558C87.642 95.387 86.8954 95.5338 86.5311 96.0836C86.1668 96.6335 86.3228 97.3782 86.8796 97.7471Z" fill="#FFE8BF"/>
<path d="M85.7325 92.272C86.2893 92.6408 87.0359 92.494 87.4002 91.9442C87.7645 91.3943 87.6084 90.6496 87.0517 90.2807C86.495 89.9119 85.7483 90.0587 85.3841 90.6085C85.0198 91.1584 85.1758 91.9031 85.7325 92.272Z" fill="#FFE8BF"/>
<path d="M84.5855 86.7969C85.1423 87.1657 85.8889 87.0189 86.2532 86.4691C86.6174 85.9192 86.4614 85.1745 85.9047 84.8056C85.3479 84.4368 84.6013 84.5836 84.237 85.1334C83.8727 85.6833 84.0288 86.428 84.5855 86.7969Z" fill="#FFE8BF"/>
<path d="M83.4385 81.3218C83.9952 81.6906 84.7418 81.5438 85.1061 80.994C85.4704 80.4441 85.3143 79.6994 84.7576 79.3305C84.2009 78.9617 83.4542 79.1085 83.09 79.6583C82.7257 80.2082 82.8817 80.9529 83.4385 81.3218Z" fill="#FFE8BF"/>
<path d="M82.2876 75.8524C82.8444 76.2212 83.591 76.0745 83.9553 75.5246C84.3196 74.9748 84.1635 74.23 83.6068 73.8612C83.0501 73.4924 82.3034 73.6391 81.9392 74.189C81.5749 74.7388 81.7309 75.4836 82.2876 75.8524Z" fill="#FFE8BF"/>
<path d="M81.1406 70.3773C81.6973 70.7461 82.444 70.5994 82.8082 70.0495C83.1725 69.4997 83.0165 68.7549 82.4598 68.3861C81.903 68.0173 81.1564 68.164 80.7921 68.7139C80.4278 69.2637 80.5839 70.0085 81.1406 70.3773Z" fill="#FFE8BF"/>
<path d="M79.9993 64.9061C80.5561 65.2749 81.3027 65.1282 81.667 64.5783C82.0312 64.0285 81.8752 63.2837 81.3185 62.9149C80.7617 62.5461 80.0151 62.6928 79.6508 63.2427C79.2866 63.7925 79.4426 64.5373 79.9993 64.9061Z" fill="#FFE8BF"/>
<path d="M78.8523 59.431C79.409 59.7998 80.1557 59.6531 80.5199 59.1032C80.8842 58.5534 80.7282 57.8086 80.1714 57.4398C79.6147 57.071 78.8681 57.2177 78.5038 57.7676C78.1395 58.3174 78.2955 59.0622 78.8523 59.431Z" fill="#FFE8BF"/>
<path d="M77.7052 53.9559C78.262 54.3247 79.0086 54.178 79.3729 53.6281C79.7372 53.0783 79.5811 52.3335 79.0244 51.9647C78.4676 51.5959 77.721 51.7426 77.3567 52.2925C76.9925 52.8423 77.1485 53.5871 77.7052 53.9559Z" fill="#FFE8BF"/>
<path d="M76.5544 48.4866C77.1112 48.8554 77.8578 48.7086 78.2221 48.1588C78.5863 47.6089 78.4303 46.8642 77.8736 46.4953C77.3168 46.1265 76.5702 46.2733 76.2059 46.8231C75.8417 47.373 75.9977 48.1177 76.5544 48.4866Z" fill="#FFE8BF"/>
<path d="M75.4074 43.0115C75.9641 43.3803 76.7108 43.2335 77.075 42.6837C77.4393 42.1338 77.2833 41.3891 76.7265 41.0202C76.1698 40.6514 75.4232 40.7982 75.0589 41.348C74.6946 41.8979 74.8507 42.6426 75.4074 43.0115Z" fill="#FFE8BF"/>
<path d="M74.2661 37.5401C74.8228 37.909 75.5695 37.7622 75.9337 37.2124C76.298 36.6625 76.142 35.9178 75.5853 35.5489C75.0285 35.1801 74.2819 35.3269 73.9176 35.8767C73.5533 36.4266 73.7094 37.1713 74.2661 37.5401Z" fill="#FFE8BF"/>
<path d="M73.1191 32.0651C73.6758 32.4339 74.4224 32.2871 74.7867 31.7373C75.151 31.1874 74.9949 30.4427 74.4382 30.0738C73.8815 29.705 73.1348 29.8518 72.7706 30.4016C72.4063 30.9515 72.5623 31.6962 73.1191 32.0651Z" fill="#FFE8BF"/>
<path d="M71.972 26.59C72.5288 26.9588 73.2754 26.812 73.6397 26.2622C74.0039 25.7123 73.8479 24.9676 73.2912 24.5987C72.7344 24.2299 71.9878 24.3767 71.6235 24.9265C71.2593 25.4764 71.4153 26.2211 71.972 26.59Z" fill="#FFE8BF"/>
<path d="M70.8212 21.1206C71.3779 21.4894 72.1246 21.3427 72.4888 20.7928C72.8531 20.2429 72.6971 19.4982 72.1404 19.1294C71.5836 18.7605 70.837 18.9073 70.4727 19.4572C70.1084 20.007 70.2645 20.7518 70.8212 21.1206Z" fill="#FFE8BF"/>
<path d="M69.6742 15.6455C70.2309 16.0143 70.9775 15.8676 71.3418 15.3177C71.7061 14.7679 71.5501 14.0231 70.9933 13.6543C70.4366 13.2854 69.6899 13.4322 69.3257 13.9821C68.9614 14.5319 69.1174 15.2767 69.6742 15.6455Z" fill="#FFE8BF"/>
<path d="M68.5329 10.1743C69.0896 10.5431 69.8363 10.3964 70.2005 9.84652C70.5648 9.29666 70.4088 8.55191 69.852 8.18308C69.2953 7.81425 68.5487 7.96101 68.1844 8.51087C67.8201 9.06073 67.9761 9.80547 68.5329 10.1743Z" fill="#FFE8BF"/>
<path d="M81.7147 98.7622C82.2714 99.131 83.018 98.9843 83.3823 98.4344C83.7466 97.8846 83.5906 97.1398 83.0338 96.771C82.4771 96.4021 81.7304 96.5489 81.3662 97.0988C81.0019 97.6486 81.1579 98.3934 81.7147 98.7622Z" fill="#FFE8BF"/>
<path d="M80.5676 93.2871C81.1244 93.6559 81.871 93.5092 82.2353 92.9593C82.5995 92.4095 82.4435 91.6647 81.8868 91.2959C81.33 90.927 80.5834 91.0738 80.2191 91.6237C79.8549 92.1735 80.0109 92.9183 80.5676 93.2871Z" fill="#FFE8BF"/>
<path d="M79.4206 87.812C79.9773 88.1808 80.7239 88.0341 81.0882 87.4842C81.4525 86.9344 81.2965 86.1896 80.7397 85.8208C80.183 85.4519 79.4364 85.5987 79.0721 86.1486C78.7078 86.6984 78.8638 87.4432 79.4206 87.812Z" fill="#FFE8BF"/>
<path d="M78.2735 82.337C78.8303 82.7059 79.5769 82.5591 79.9412 82.0092C80.3055 81.4594 80.1494 80.7146 79.5927 80.3458C79.036 79.977 78.2893 80.1237 77.9251 80.6736C77.5608 81.2234 77.7168 81.9682 78.2735 82.337Z" fill="#FFE8BF"/>
<path d="M77.1323 76.8657C77.689 77.2345 78.4356 77.0878 78.7999 76.5379C79.1642 75.9881 79.0082 75.2433 78.4514 74.8745C77.8947 74.5057 77.148 74.6524 76.7838 75.2023C76.4195 75.7521 76.5755 76.4969 77.1323 76.8657Z" fill="#FFE8BF"/>
<path d="M75.9815 71.3963C76.5382 71.7652 77.2848 71.6184 77.6491 71.0686C78.0134 70.5187 77.8573 69.774 77.3006 69.4051C76.7439 69.0363 75.9972 69.1831 75.633 69.7329C75.2687 70.2828 75.4247 71.0275 75.9815 71.3963Z" fill="#FFE8BF"/>
<path d="M74.8344 65.9213C75.3912 66.2901 76.1378 66.1433 76.5021 65.5935C76.8663 65.0436 76.7103 64.2989 76.1536 63.93C75.5968 63.5612 74.8502 63.708 74.4859 64.2578C74.1216 64.8077 74.2777 65.5524 74.8344 65.9213Z" fill="#FFE8BF"/>
<path d="M73.6874 60.4462C74.2441 60.815 74.9907 60.6682 75.355 60.1184C75.7193 59.5685 75.5633 58.8238 75.0065 58.4549C74.4498 58.0861 73.7031 58.2329 73.3389 58.7827C72.9746 59.3326 73.1306 60.0773 73.6874 60.4462Z" fill="#FFE8BF"/>
<path d="M72.5403 54.9711C73.0971 55.3399 73.8437 55.1931 74.208 54.6433C74.5722 54.0934 74.4162 53.3487 73.8595 52.9798C73.3027 52.611 72.5561 52.7578 72.1918 53.3076C71.8276 53.8575 71.9836 54.6022 72.5403 54.9711Z" fill="#FFE8BF"/>
<path d="M71.3933 49.496C71.95 49.8648 72.6967 49.718 73.0609 49.1682C73.4252 48.6183 73.2692 47.8736 72.7124 47.5047C72.1557 47.1359 71.4091 47.2827 71.0448 47.8325C70.6805 48.3824 70.8365 49.1271 71.3933 49.496Z" fill="#FFE8BF"/>
<path d="M70.2482 44.0304C70.805 44.3992 71.5516 44.2525 71.9159 43.7026C72.2801 43.1527 72.1241 42.408 71.5674 42.0392C71.0106 41.6703 70.264 41.8171 69.8997 42.3669C69.5355 42.9168 69.6915 43.6616 70.2482 44.0304Z" fill="#FFE8BF"/>
<path d="M69.1012 38.5554C69.6579 38.9242 70.4046 38.7775 70.7688 38.2276C71.1331 37.6778 70.9771 36.933 70.4203 36.5642C69.8636 36.1954 69.117 36.3421 68.7527 36.892C68.3884 37.4418 68.5444 38.1866 69.1012 38.5554Z" fill="#FFE8BF"/>
<path d="M67.9541 33.0803C68.5109 33.4491 69.2575 33.3024 69.6218 32.7525C69.9861 32.2027 69.83 31.4579 69.2733 31.0891C68.7166 30.7203 67.9699 30.867 67.6057 31.4169C67.2414 31.9667 67.3974 32.7115 67.9541 33.0803Z" fill="#FFE8BF"/>
<path d="M66.8071 27.6052C67.3638 27.974 68.1105 27.8273 68.4747 27.2774C68.839 26.7276 68.683 25.9828 68.1262 25.614C67.5695 25.2452 66.8229 25.3919 66.4586 25.9418C66.0943 26.4916 66.2504 27.2364 66.8071 27.6052Z" fill="#FFE8BF"/>
<path d="M65.6601 22.1301C66.2168 22.4989 66.9634 22.3522 67.3277 21.8023C67.692 21.2525 67.5359 20.5077 66.9792 20.1389C66.4225 19.7701 65.6758 19.9168 65.3116 20.4667C64.9473 21.0165 65.1033 21.7613 65.6601 22.1301Z" fill="#FFE8BF"/>
<path d="M64.515 16.6645C65.0717 17.0334 65.8184 16.8866 66.1826 16.3368C66.5469 15.7869 66.3909 15.0421 65.8342 14.6733C65.2774 14.3045 64.5308 14.4512 64.1665 15.0011C63.8022 15.551 63.9583 16.2957 64.515 16.6645Z" fill="#FFE8BF"/>
<path d="M75.4027 94.3024C75.9594 94.6712 76.7061 94.5244 77.0703 93.9746C77.4346 93.4247 77.2786 92.68 76.7219 92.3111C76.1651 91.9423 75.4185 92.0891 75.0542 92.6389C74.6899 93.1888 74.846 93.9335 75.4027 94.3024Z" fill="#FFE8BF"/>
<path d="M74.2557 88.8273C74.8124 89.1961 75.559 89.0493 75.9233 88.4995C76.2876 87.9496 76.1315 87.2049 75.5748 86.836C75.0181 86.4672 74.2714 86.614 73.9072 87.1638C73.5429 87.7137 73.6989 88.4584 74.2557 88.8273Z" fill="#FFE8BF"/>
<path d="M73.1144 83.3559C73.6711 83.7248 74.4177 83.578 74.782 83.0282C75.1463 82.4783 74.9903 81.7336 74.4335 81.3647C73.8768 80.9959 73.1302 81.1426 72.7659 81.6925C72.4016 82.2424 72.5576 82.9871 73.1144 83.3559Z" fill="#FFE8BF"/>
<path d="M71.9673 77.881C72.5241 78.2498 73.2707 78.103 73.635 77.5532C73.9993 77.0033 73.8432 76.2586 73.2865 75.8897C72.7297 75.5209 71.9831 75.6677 71.6188 76.2175C71.2546 76.7674 71.4106 77.5121 71.9673 77.881Z" fill="#FFE8BF"/>
<path d="M70.8203 72.4059C71.377 72.7747 72.1237 72.6279 72.4879 72.0781C72.8522 71.5282 72.6962 70.7835 72.1394 70.4147C71.5827 70.0458 70.8361 70.1926 70.4718 70.7424C70.1075 71.2923 70.2636 72.037 70.8203 72.4059Z" fill="#FFE8BF"/>
<path d="M69.6695 66.9364C70.2262 67.3052 70.9729 67.1585 71.3371 66.6086C71.7014 66.0587 71.5454 65.314 70.9886 64.9452C70.4319 64.5763 69.6853 64.7231 69.321 65.273C68.9567 65.8228 69.1127 66.5676 69.6695 66.9364Z" fill="#FFE8BF"/>
<path d="M68.5224 61.4614C69.0792 61.8302 69.8258 61.6835 70.1901 61.1336C70.5544 60.5838 70.3983 59.839 69.8416 59.4702C69.2849 59.1014 68.5382 59.2481 68.174 59.798C67.8097 60.3478 67.9657 61.0926 68.5224 61.4614Z" fill="#FFE8BF"/>
<path d="M67.3812 55.9901C67.9379 56.3589 68.6845 56.2122 69.0488 55.6623C69.4131 55.1125 69.257 54.3677 68.7003 53.9989C68.1436 53.6301 67.3969 53.7768 67.0327 54.3267C66.6684 54.8765 66.8244 55.6213 67.3812 55.9901Z" fill="#FFE8BF"/>
<path d="M66.2341 50.515C66.7909 50.8838 67.5375 50.7371 67.9018 50.1872C68.266 49.6374 68.11 48.8926 67.5533 48.5238C66.9965 48.155 66.2499 48.3017 65.8856 48.8516C65.5214 49.4014 65.6774 50.1462 66.2341 50.515Z" fill="#FFE8BF"/>
<path d="M65.0871 45.0399C65.6438 45.4087 66.3904 45.262 66.7547 44.7121C67.119 44.1623 66.963 43.4175 66.4062 43.0487C65.8495 42.6799 65.1029 42.8266 64.7386 43.3765C64.3743 43.9263 64.5303 44.6711 65.0871 45.0399Z" fill="#FFE8BF"/>
<path d="M63.9363 39.5705C64.493 39.9394 65.2396 39.7926 65.6039 39.2428C65.9682 38.6929 65.8122 37.9482 65.2554 37.5793C64.6987 37.2105 63.952 37.3572 63.5878 37.9071C63.2235 38.457 63.3795 39.2017 63.9363 39.5705Z" fill="#FFE8BF"/>
<path d="M62.7892 34.0954C63.346 34.4643 64.0926 34.3175 64.4569 33.7677C64.8211 33.2178 64.6651 32.4731 64.1084 32.1042C63.5516 31.7354 62.805 31.8822 62.4407 32.432C62.0765 32.9819 62.2325 33.7266 62.7892 34.0954Z" fill="#FFE8BF"/>
<path d="M61.6422 28.6203C62.1989 28.9892 62.9456 28.8424 63.3098 28.2926C63.6741 27.7427 63.5181 26.998 62.9613 26.6291C62.4046 26.2603 61.658 26.4071 61.2937 26.9569C60.9294 27.5068 61.0854 28.2515 61.6422 28.6203Z" fill="#FFE8BF"/>
</g>
</g>
<path d="M101.432 95.4854C102.294 96.0566 103.451 95.8293 104.015 94.9778C104.579 94.1263 104.337 92.973 103.475 92.4019C102.613 91.8307 101.457 92.058 100.893 92.9095C100.329 93.7609 100.57 94.9142 101.432 95.4854Z" fill="#C49A6C" stroke="#C49A6C" stroke-miterlimit="10"/>
<path d="M81.8281 98.8538C82.6903 99.425 83.8465 99.1977 84.4106 98.3462C84.9747 97.4947 84.733 96.3414 83.8709 95.7703C83.0087 95.1991 81.8525 95.4264 81.2884 96.2779C80.7243 97.1294 80.9659 98.2826 81.8281 98.8538Z" fill="#C49A6C" stroke="#C49A6C" stroke-miterlimit="10"/>
<path d="M84.6459 14.1526C85.5081 14.7238 86.6643 14.4965 87.2284 13.645C87.7925 12.7935 87.5508 11.6402 86.6887 11.0691C85.8265 10.4979 84.6703 10.7252 84.1062 11.5767C83.5421 12.4282 83.7837 13.5815 84.6459 14.1526Z" fill="#C49A6C" stroke="#C49A6C" stroke-miterlimit="10"/>
<path d="M64.6776 17.5827C65.5397 18.1538 66.696 17.9266 67.2601 17.0751C67.8242 16.2236 67.5825 15.0703 66.7204 14.4991C65.8582 13.928 64.702 14.1552 64.1379 15.0067C63.5738 15.8582 63.8154 17.0115 64.6776 17.5827Z" fill="#C49A6C" stroke="#C49A6C" stroke-miterlimit="10"/>
<path d="M22.3206 121.818L101.506 133.986C104.66 134.47 107.582 132.323 108.033 129.19L110.114 114.729C110.565 111.596 108.373 108.663 105.22 108.178L26.0346 96.0103C22.8807 95.5257 19.9585 97.6728 19.5075 100.806L17.4265 115.267C16.9756 118.4 19.1667 121.333 22.3206 121.818Z" fill="#C49A6C" stroke="#C49A6C" stroke-miterlimit="10"/>
<path opacity="0.9" d="M49.7224 123.02L71.9855 126.441C74.3942 126.812 76.626 125.172 76.9704 122.779L78.5897 111.527C78.934 109.134 77.2606 106.894 74.8519 106.524L52.5888 103.103C50.1801 102.733 47.9483 104.373 47.6039 106.766L45.9847 118.017C45.6403 120.41 47.3137 122.65 49.7224 123.02Z" fill="#B79064"/>
<g opacity="0.3">
<mask id="mask1_190_603" style="mask-type:luminance" maskUnits="userSpaceOnUse" x="19" y="96" width="89" height="38">
<path d="M107.622 109.819L22.6036 96.7548L19.217 120.287L104.235 133.352L107.622 109.819Z" fill="white"/>
</mask>
<g mask="url(#mask1_190_603)">
<path d="M40.3607 96.4891C40.9175 96.858 41.6641 96.7112 42.0283 96.1613C42.3926 95.6115 42.2366 94.8667 41.6799 94.4979C41.1231 94.1291 40.3765 94.2758 40.0122 94.8257C39.6479 95.3755 39.804 96.1203 40.3607 96.4891Z" fill="#FFE8BF"/>
<path d="M45.9064 97.3389C46.4632 97.7077 47.2098 97.5609 47.5741 97.0111C47.9383 96.4612 47.7823 95.7165 47.2256 95.3476C46.6688 94.9788 45.9222 95.1256 45.5579 95.6754C45.1936 96.2253 45.3497 96.97 45.9064 97.3389Z" fill="#FFE8BF"/>
<path d="M51.4579 98.1924C52.0146 98.5612 52.7612 98.4144 53.1255 97.8646C53.4898 97.3147 53.3338 96.57 52.777 96.2012C52.2203 95.8323 51.4737 95.9791 51.1094 96.5289C50.7451 97.0788 50.9011 97.8235 51.4579 98.1924Z" fill="#FFE8BF"/>
<path d="M57.0093 99.0459C57.5661 99.4147 58.3127 99.268 58.677 98.7181C59.0413 98.1682 58.8852 97.4235 58.3285 97.0547C57.7717 96.6858 57.0251 96.8326 56.6608 97.3825C56.2966 97.9323 56.4526 98.6771 57.0093 99.0459Z" fill="#FFE8BF"/>
<path d="M62.5513 99.9014C63.108 100.27 63.8546 100.123 64.2189 99.5736C64.5832 99.0237 64.4272 98.279 63.8704 97.9101C63.3137 97.5413 62.5671 97.6881 62.2028 98.2379C61.8385 98.7878 61.9945 99.5325 62.5513 99.9014Z" fill="#FFE8BF"/>
<path d="M68.1027 100.755C68.6595 101.124 69.4061 100.977 69.7704 100.427C70.1346 99.8772 69.9786 99.1325 69.4219 98.7637C68.8651 98.3948 68.1185 98.5416 67.7542 99.0914C67.39 99.6413 67.546 100.386 68.1027 100.755Z" fill="#FFE8BF"/>
<path d="M73.6542 101.608C74.2109 101.977 74.9576 101.83 75.3218 101.281C75.6861 100.731 75.5301 99.986 74.9733 99.6172C74.4166 99.2483 73.67 99.3951 73.3057 99.945C72.9414 100.495 73.0975 101.24 73.6542 101.608Z" fill="#FFE8BF"/>
<path d="M79.1999 102.458C79.7566 102.827 80.5033 102.68 80.8675 102.13C81.2318 101.58 81.0758 100.836 80.519 100.467C79.9623 100.098 79.2157 100.245 78.8514 100.795C78.4871 101.345 78.6432 102.089 79.1999 102.458Z" fill="#FFE8BF"/>
<path d="M84.7514 103.312C85.3081 103.68 86.0547 103.534 86.419 102.984C86.7833 102.434 86.6272 101.689 86.0705 101.32C85.5138 100.952 84.7671 101.098 84.4029 101.648C84.0386 102.198 84.1946 102.943 84.7514 103.312Z" fill="#FFE8BF"/>
<path d="M90.3028 104.165C90.8596 104.534 91.6062 104.387 91.9705 103.837C92.3347 103.288 92.1787 102.543 91.622 102.174C91.0652 101.805 90.3186 101.952 89.9543 102.502C89.5901 103.052 89.7461 103.796 90.3028 104.165Z" fill="#FFE8BF"/>
<path d="M95.8485 105.015C96.4053 105.384 97.1519 105.237 97.5162 104.687C97.8804 104.137 97.7244 103.392 97.1677 103.024C96.6109 102.655 95.8643 102.802 95.5 103.351C95.1358 103.901 95.2918 104.646 95.8485 105.015Z" fill="#FFE8BF"/>
<path d="M101.4 105.869C101.957 106.237 102.703 106.091 103.068 105.541C103.432 104.991 103.276 104.246 102.719 103.877C102.162 103.508 101.416 103.655 101.051 104.205C100.687 104.755 100.843 105.5 101.4 105.869Z" fill="#FFE8BF"/>
<path d="M22.9628 99.1171C23.5195 99.4859 24.2661 99.3391 24.6304 98.7893C24.9947 98.2394 24.8387 97.4947 24.2819 97.1258C23.7252 96.757 22.9786 96.9038 22.6143 97.4536C22.25 98.0035 22.406 98.7482 22.9628 99.1171Z" fill="#FFE8BF"/>
<path d="M28.5142 99.9706C29.071 100.339 29.8176 100.193 30.1819 99.6428C30.5461 99.0929 30.3901 98.3482 29.8334 97.9793C29.2766 97.6105 28.53 97.7573 28.1657 98.3071C27.8015 98.857 27.9575 99.6017 28.5142 99.9706Z" fill="#FFE8BF"/>
<path d="M34.0657 100.824C34.6224 101.193 35.3691 101.046 35.7333 100.496C36.0976 99.9464 35.9416 99.2017 35.3848 98.8329C34.8281 98.464 34.0815 98.6108 33.7172 99.1606C33.3529 99.7105 33.509 100.455 34.0657 100.824Z" fill="#FFE8BF"/>
<path d="M39.6114 101.674C40.1681 102.043 40.9148 101.896 41.279 101.346C41.6433 100.796 41.4873 100.051 40.9305 99.6826C40.3738 99.3138 39.6272 99.4605 39.2629 100.01C38.8986 100.56 39.0547 101.305 39.6114 101.674Z" fill="#FFE8BF"/>
<path d="M45.1629 102.527C45.7196 102.896 46.4662 102.749 46.8305 102.2C47.1948 101.65 47.0387 100.905 46.482 100.536C45.9253 100.167 45.1786 100.314 44.8144 100.864C44.4501 101.414 44.6061 102.159 45.1629 102.527Z" fill="#FFE8BF"/>
<path d="M50.7143 103.381C51.2711 103.75 52.0177 103.603 52.382 103.053C52.7462 102.503 52.5902 101.758 52.0335 101.39C51.4767 101.021 50.7301 101.168 50.3658 101.717C50.0016 102.267 50.1576 103.012 50.7143 103.381Z" fill="#FFE8BF"/>
<path d="M56.2563 104.236C56.813 104.605 57.5596 104.458 57.9239 103.909C58.2882 103.359 58.1321 102.614 57.5754 102.245C57.0187 101.876 56.272 102.023 55.9078 102.573C55.5435 103.123 55.6995 103.867 56.2563 104.236Z" fill="#FFE8BF"/>
<path d="M61.8077 105.09C62.3645 105.459 63.1111 105.312 63.4754 104.762C63.8396 104.212 63.6836 103.467 63.1269 103.099C62.5701 102.73 61.8235 102.877 61.4592 103.426C61.095 103.976 61.251 104.721 61.8077 105.09Z" fill="#FFE8BF"/>
<path d="M67.3592 105.943C67.9159 106.312 68.6625 106.165 69.0268 105.616C69.3911 105.066 69.2351 104.321 68.6783 103.952C68.1216 103.583 67.375 103.73 67.0107 104.28C66.6464 104.83 66.8024 105.575 67.3592 105.943Z" fill="#FFE8BF"/>
<path d="M72.9049 106.793C73.4616 107.162 74.2082 107.015 74.5725 106.465C74.9368 105.915 74.7808 105.171 74.224 104.802C73.6673 104.433 72.9207 104.58 72.5564 105.13C72.1921 105.68 72.3481 106.424 72.9049 106.793Z" fill="#FFE8BF"/>
<path d="M78.4563 107.647C79.0131 108.016 79.7597 107.869 80.124 107.319C80.4883 106.769 80.3322 106.024 79.7755 105.655C79.2188 105.287 78.4721 105.433 78.1079 105.983C77.7436 106.533 77.8996 107.278 78.4563 107.647Z" fill="#FFE8BF"/>
<path d="M84.0078 108.5C84.5645 108.869 85.3112 108.722 85.6754 108.172C86.0397 107.623 85.8837 106.878 85.327 106.509C84.7702 106.14 84.0236 106.287 83.6593 106.837C83.295 107.387 83.4511 108.131 84.0078 108.5Z" fill="#FFE8BF"/>
<path d="M89.5535 109.35C90.1103 109.719 90.8569 109.572 91.2212 109.022C91.5854 108.472 91.4294 107.728 90.8727 107.359C90.3159 106.99 89.5693 107.137 89.205 107.687C88.8407 108.236 88.9968 108.981 89.5535 109.35Z" fill="#FFE8BF"/>
<path d="M95.105 110.203C95.6617 110.572 96.4083 110.426 96.7726 109.876C97.1369 109.326 96.9809 108.581 96.4241 108.212C95.8674 107.843 95.1207 107.99 94.7565 108.54C94.3922 109.09 94.5482 109.835 95.105 110.203Z" fill="#FFE8BF"/>
<path d="M100.656 111.057C101.213 111.426 101.96 111.279 102.324 110.729C102.688 110.179 102.532 109.435 101.976 109.066C101.419 108.697 100.672 108.844 100.308 109.394C99.9437 109.943 100.1 110.688 100.656 111.057Z" fill="#FFE8BF"/>
<path d="M106.202 111.907C106.759 112.276 107.506 112.129 107.87 111.579C108.234 111.029 108.078 110.284 107.521 109.916C106.965 109.547 106.218 109.693 105.854 110.243C105.489 110.793 105.645 111.538 106.202 111.907Z" fill="#FFE8BF"/>
<path d="M22.2192 104.306C22.776 104.674 23.5226 104.528 23.8869 103.978C24.2511 103.428 24.0951 102.683 23.5384 102.314C22.9816 101.945 22.235 102.092 21.8707 102.642C21.5065 103.192 21.6625 103.937 22.2192 104.306Z" fill="#FFE8BF"/>
<path d="M27.7649 105.155C28.3217 105.524 29.0683 105.377 29.4326 104.827C29.7968 104.278 29.6408 103.533 29.0841 103.164C28.5273 102.795 27.7807 102.942 27.4164 103.492C27.0522 104.042 27.2082 104.786 27.7649 105.155Z" fill="#FFE8BF"/>
<path d="M33.3164 106.009C33.8731 106.378 34.6197 106.231 34.984 105.681C35.3483 105.131 35.1923 104.386 34.6355 104.018C34.0788 103.649 33.3322 103.795 32.9679 104.345C32.6036 104.895 32.7596 105.64 33.3164 106.009Z" fill="#FFE8BF"/>
<path d="M38.8678 106.862C39.4246 107.231 40.1712 107.084 40.5355 106.535C40.8998 105.985 40.7437 105.24 40.187 104.871C39.6303 104.502 38.8836 104.649 38.5194 105.199C38.1551 105.749 38.3111 106.494 38.8678 106.862Z" fill="#FFE8BF"/>
<path d="M44.4135 107.712C44.9703 108.081 45.7169 107.934 46.0812 107.384C46.4455 106.835 46.2894 106.09 45.7327 105.721C45.176 105.352 44.4293 105.499 44.0651 106.049C43.7008 106.599 43.8568 107.343 44.4135 107.712Z" fill="#FFE8BF"/>
<path d="M49.9612 108.571C50.518 108.94 51.2646 108.793 51.6289 108.243C51.9932 107.694 51.8371 106.949 51.2804 106.58C50.7236 106.211 49.977 106.358 49.6127 106.908C49.2485 107.458 49.4045 108.202 49.9612 108.571Z" fill="#FFE8BF"/>
<path d="M55.5127 109.425C56.0694 109.794 56.8161 109.647 57.1803 109.097C57.5446 108.547 57.3886 107.803 56.8318 107.434C56.2751 107.065 55.5285 107.212 55.1642 107.761C54.7999 108.311 54.956 109.056 55.5127 109.425Z" fill="#FFE8BF"/>
<path d="M61.0584 110.275C61.6151 110.643 62.3618 110.497 62.726 109.947C63.0903 109.397 62.9343 108.652 62.3776 108.283C61.8208 107.915 61.0742 108.061 60.7099 108.611C60.3456 109.161 60.5017 109.906 61.0584 110.275Z" fill="#FFE8BF"/>
<path d="M66.6099 111.128C67.1666 111.497 67.9132 111.35 68.2775 110.8C68.6418 110.251 68.4858 109.506 67.929 109.137C67.3723 108.768 66.6256 108.915 66.2614 109.465C65.8971 110.015 66.0531 110.759 66.6099 111.128Z" fill="#FFE8BF"/>
<path d="M72.1613 111.982C72.7181 112.351 73.4647 112.204 73.829 111.654C74.1932 111.104 74.0372 110.359 73.4805 109.99C72.9237 109.622 72.1771 109.768 71.8128 110.318C71.4486 110.868 71.6046 111.613 72.1613 111.982Z" fill="#FFE8BF"/>
<path d="M77.707 112.831C78.2638 113.2 79.0104 113.053 79.3747 112.504C79.7389 111.954 79.5829 111.209 79.0262 110.84C78.4694 110.471 77.7228 110.618 77.3585 111.168C76.9943 111.718 77.1503 112.463 77.707 112.831Z" fill="#FFE8BF"/>
<path d="M83.2585 113.685C83.8152 114.054 84.5619 113.907 84.9261 113.357C85.2904 112.807 85.1344 112.063 84.5776 111.694C84.0209 111.325 83.2743 111.472 82.91 112.021C82.5457 112.571 82.7018 113.316 83.2585 113.685Z" fill="#FFE8BF"/>
<path d="M88.81 114.538C89.3667 114.907 90.1133 114.761 90.4776 114.211C90.8419 113.661 90.6858 112.916 90.1291 112.547C89.5724 112.178 88.8257 112.325 88.4615 112.875C88.0972 113.425 88.2532 114.17 88.81 114.538Z" fill="#FFE8BF"/>
<path d="M94.3557 115.388C94.9124 115.757 95.659 115.61 96.0233 115.06C96.3876 114.511 96.2315 113.766 95.6748 113.397C95.1181 113.028 94.3714 113.175 94.0072 113.725C93.6429 114.275 93.7989 115.019 94.3557 115.388Z" fill="#FFE8BF"/>
<path d="M99.9071 116.242C100.464 116.611 101.21 116.464 101.575 115.914C101.939 115.364 101.783 114.619 101.226 114.251C100.67 113.882 99.9229 114.029 99.5586 114.578C99.1944 115.128 99.3504 115.873 99.9071 116.242Z" fill="#FFE8BF"/>
<path d="M105.455 117.101C106.012 117.47 106.758 117.323 107.122 116.773C107.487 116.223 107.331 115.479 106.774 115.11C106.217 114.741 105.471 114.888 105.106 115.438C104.742 115.987 104.898 116.732 105.455 117.101Z" fill="#FFE8BF"/>
<path d="M21.4699 109.49C22.0266 109.859 22.7733 109.712 23.1375 109.163C23.5018 108.613 23.3458 107.868 22.789 107.499C22.2323 107.13 21.4857 107.277 21.1214 107.827C20.7571 108.377 20.9132 109.122 21.4699 109.49Z" fill="#FFE8BF"/>
<path d="M27.0214 110.344C27.5781 110.713 28.3247 110.566 28.689 110.016C29.0533 109.466 28.8972 108.721 28.3405 108.353C27.7838 107.984 27.0371 108.131 26.6729 108.68C26.3086 109.23 26.4646 109.975 27.0214 110.344Z" fill="#FFE8BF"/>
<path d="M32.5728 111.197C33.1296 111.566 33.8762 111.419 34.2405 110.87C34.6047 110.32 34.4487 109.575 33.892 109.206C33.3352 108.837 32.5886 108.984 32.2243 109.534C31.8601 110.084 32.0161 110.829 32.5728 111.197Z" fill="#FFE8BF"/>
<path d="M38.1185 112.047C38.6753 112.416 39.4219 112.269 39.7862 111.719C40.1504 111.169 39.9944 110.425 39.4377 110.056C38.8809 109.687 38.1343 109.834 37.77 110.384C37.4058 110.934 37.5618 111.678 38.1185 112.047Z" fill="#FFE8BF"/>
<path d="M43.67 112.901C44.2267 113.269 44.9734 113.123 45.3376 112.573C45.7019 112.023 45.5459 111.278 44.9891 110.909C44.4324 110.541 43.6858 110.687 43.3215 111.237C42.9572 111.787 43.1133 112.532 43.67 112.901Z" fill="#FFE8BF"/>
<path d="M49.2177 113.76C49.7744 114.129 50.5211 113.982 50.8853 113.432C51.2496 112.882 51.0936 112.137 50.5368 111.769C49.9801 111.4 49.2335 111.547 48.8692 112.096C48.5049 112.646 48.6609 113.391 49.2177 113.76Z" fill="#FFE8BF"/>
<path d="M54.7634 114.61C55.3201 114.978 56.0668 114.832 56.431 114.282C56.7953 113.732 56.6393 112.987 56.0825 112.618C55.5258 112.25 54.7792 112.396 54.4149 112.946C54.0506 113.496 54.2067 114.241 54.7634 114.61Z" fill="#FFE8BF"/>
<path d="M60.3149 115.463C60.8716 115.832 61.6182 115.685 61.9825 115.135C62.3468 114.585 62.1907 113.841 61.634 113.472C61.0773 113.103 60.3306 113.25 59.9664 113.8C59.6021 114.35 59.7581 115.094 60.3149 115.463Z" fill="#FFE8BF"/>
<path d="M65.8663 116.317C66.4231 116.685 67.1697 116.539 67.534 115.989C67.8982 115.439 67.7422 114.694 67.1855 114.325C66.6287 113.957 65.8821 114.103 65.5178 114.653C65.1535 115.203 65.3096 115.948 65.8663 116.317Z" fill="#FFE8BF"/>
<path d="M71.412 117.166C71.9688 117.535 72.7154 117.388 73.0797 116.839C73.4439 116.289 73.2879 115.544 72.7312 115.175C72.1744 114.806 71.4278 114.953 71.0635 115.503C70.6993 116.053 70.8553 116.798 71.412 117.166Z" fill="#FFE8BF"/>
<path d="M76.9635 118.02C77.5202 118.389 78.2668 118.242 78.6311 117.692C78.9954 117.142 78.8394 116.398 78.2826 116.029C77.7259 115.66 76.9793 115.807 76.615 116.357C76.2507 116.906 76.4067 117.651 76.9635 118.02Z" fill="#FFE8BF"/>
<path d="M82.5149 118.874C83.0717 119.242 83.8183 119.096 84.1826 118.546C84.5469 117.996 84.3908 117.251 83.8341 116.882C83.2774 116.513 82.5307 116.66 82.1665 117.21C81.8022 117.76 81.9582 118.505 82.5149 118.874Z" fill="#FFE8BF"/>
<path d="M88.0606 119.723C88.6174 120.092 89.364 119.945 89.7283 119.395C90.0926 118.846 89.9365 118.101 89.3798 117.732C88.823 117.363 88.0764 117.51 87.7121 118.06C87.3479 118.61 87.5039 119.354 88.0606 119.723Z" fill="#FFE8BF"/>
<path d="M93.6121 120.577C94.1688 120.946 94.9155 120.799 95.2797 120.249C95.644 119.699 95.488 118.954 94.9313 118.586C94.3745 118.217 93.6279 118.363 93.2636 118.913C92.8993 119.463 93.0554 120.208 93.6121 120.577Z" fill="#FFE8BF"/>
<path d="M99.1598 121.436C99.7165 121.805 100.463 121.658 100.827 121.108C101.192 120.558 101.036 119.814 100.479 119.445C99.9222 119.076 99.1756 119.223 98.8113 119.773C98.447 120.322 98.603 121.067 99.1598 121.436Z" fill="#FFE8BF"/>
<path d="M104.705 122.286C105.262 122.655 106.009 122.508 106.373 121.958C106.737 121.408 106.581 120.663 106.025 120.295C105.468 119.926 104.721 120.072 104.357 120.622C103.993 121.172 104.149 121.917 104.705 122.286Z" fill="#FFE8BF"/>
<path d="M20.7263 114.679C21.2831 115.048 22.0297 114.901 22.394 114.351C22.7583 113.801 22.6022 113.056 22.0455 112.688C21.4888 112.319 20.7421 112.466 20.3779 113.015C20.0136 113.565 20.1696 114.31 20.7263 114.679Z" fill="#FFE8BF"/>
<path d="M26.272 115.529C26.8288 115.897 27.5754 115.751 27.9397 115.201C28.304 114.651 28.1479 113.906 27.5912 113.537C27.0345 113.169 26.2878 113.315 25.9236 113.865C25.5593 114.415 25.7153 115.16 26.272 115.529Z" fill="#FFE8BF"/>
<path d="M31.8235 116.382C32.3803 116.751 33.1269 116.604 33.4912 116.054C33.8554 115.504 33.6994 114.76 33.1427 114.391C32.5859 114.022 31.8393 114.169 31.475 114.719C31.1107 115.268 31.2668 116.013 31.8235 116.382Z" fill="#FFE8BF"/>
<path d="M37.375 117.236C37.9317 117.605 38.6783 117.458 39.0426 116.908C39.4069 116.358 39.2509 115.613 38.6941 115.244C38.1374 114.876 37.3908 115.022 37.0265 115.572C36.6622 116.122 36.8182 116.867 37.375 117.236Z" fill="#FFE8BF"/>
<path d="M42.9169 118.091C43.4736 118.46 44.2203 118.313 44.5845 117.763C44.9488 117.213 44.7928 116.469 44.2361 116.1C43.6793 115.731 42.9327 115.878 42.5684 116.428C42.2041 116.977 42.3602 117.722 42.9169 118.091Z" fill="#FFE8BF"/>
<path d="M48.4684 118.945C49.0251 119.313 49.7717 119.167 50.136 118.617C50.5003 118.067 50.3443 117.322 49.7875 116.953C49.2308 116.585 48.4841 116.731 48.1199 117.281C47.7556 117.831 47.9116 118.576 48.4684 118.945Z" fill="#FFE8BF"/>
<path d="M54.0198 119.798C54.5766 120.167 55.3232 120.02 55.6875 119.47C56.0518 118.921 55.8957 118.176 55.339 117.807C54.7822 117.438 54.0356 117.585 53.6713 118.135C53.3071 118.685 53.4631 119.429 54.0198 119.798Z" fill="#FFE8BF"/>
<path d="M59.5655 120.648C60.1223 121.017 60.8689 120.87 61.2332 120.32C61.5974 119.77 61.4414 119.026 60.8847 118.657C60.3279 118.288 59.5813 118.435 59.217 118.985C58.8528 119.534 59.0088 120.279 59.5655 120.648Z" fill="#FFE8BF"/>
<path d="M65.117 121.501C65.6737 121.87 66.4204 121.724 66.7846 121.174C67.1489 120.624 66.9929 119.879 66.4362 119.51C65.8794 119.141 65.1328 119.288 64.7685 119.838C64.4042 120.388 64.5603 121.133 65.117 121.501Z" fill="#FFE8BF"/>
<path d="M70.6685 122.355C71.2252 122.724 71.9718 122.577 72.3361 122.027C72.7004 121.477 72.5443 120.733 71.9876 120.364C71.4309 119.995 70.6842 120.142 70.32 120.692C69.9557 121.241 70.1117 121.986 70.6685 122.355Z" fill="#FFE8BF"/>
<path d="M76.2142 123.205C76.7709 123.574 77.5175 123.427 77.8818 122.877C78.2461 122.327 78.0901 121.582 77.5333 121.213C76.9766 120.845 76.2299 120.991 75.8657 121.541C75.5014 122.091 75.6574 122.836 76.2142 123.205Z" fill="#FFE8BF"/>
<path d="M81.7656 124.058C82.3224 124.427 83.069 124.28 83.4333 123.73C83.7975 123.181 83.6415 122.436 83.0848 122.067C82.528 121.698 81.7814 121.845 81.4171 122.395C81.0529 122.945 81.2089 123.689 81.7656 124.058Z" fill="#FFE8BF"/>
<path d="M87.3171 124.912C87.8738 125.281 88.6205 125.134 88.9847 124.584C89.349 124.034 89.193 123.289 88.6362 122.921C88.0795 122.552 87.3329 122.698 86.9686 123.248C86.6043 123.798 86.7604 124.543 87.3171 124.912Z" fill="#FFE8BF"/>
<path d="M92.8628 125.761C93.4195 126.13 94.1662 125.984 94.5304 125.434C94.8947 124.884 94.7387 124.139 94.1819 123.77C93.6252 123.401 92.8786 123.548 92.5143 124.098C92.15 124.648 92.3061 125.393 92.8628 125.761Z" fill="#FFE8BF"/>
<path d="M98.4105 126.621C98.9672 126.99 99.7138 126.843 100.078 126.293C100.442 125.743 100.286 124.998 99.7296 124.629C99.1729 124.261 98.4263 124.407 98.062 124.957C97.6977 125.507 97.8537 126.252 98.4105 126.621Z" fill="#FFE8BF"/>
<path d="M103.962 127.474C104.519 127.843 105.265 127.696 105.63 127.146C105.994 126.597 105.838 125.852 105.281 125.483C104.724 125.114 103.978 125.261 103.613 125.811C103.249 126.361 103.405 127.105 103.962 127.474Z" fill="#FFE8BF"/>
<path d="M19.977 119.864C20.5338 120.232 21.2804 120.086 21.6447 119.536C22.0089 118.986 21.8529 118.241 21.2962 117.872C20.7394 117.504 19.9928 117.65 19.6285 118.2C19.2643 118.75 19.4203 119.495 19.977 119.864Z" fill="#FFE8BF"/>
<path d="M25.5285 120.717C26.0852 121.086 26.8319 120.939 27.1961 120.389C27.5604 119.84 27.4044 119.095 26.8476 118.726C26.2909 118.357 25.5443 118.504 25.18 119.054C24.8157 119.604 24.9718 120.348 25.5285 120.717Z" fill="#FFE8BF"/>
<path d="M31.08 121.571C31.6367 121.939 32.3833 121.793 32.7476 121.243C33.1119 120.693 32.9558 119.948 32.3991 119.579C31.8424 119.211 31.0957 119.357 30.7315 119.907C30.3672 120.457 30.5232 121.202 31.08 121.571Z" fill="#FFE8BF"/>
<path d="M36.6219 122.426C37.1786 122.795 37.9253 122.648 38.2895 122.098C38.6538 121.548 38.4978 120.804 37.941 120.435C37.3843 120.066 36.6377 120.213 36.2734 120.763C35.9091 121.313 36.0652 122.057 36.6219 122.426Z" fill="#FFE8BF"/>
<path d="M42.1734 123.28C42.7301 123.648 43.4767 123.502 43.841 122.952C44.2053 122.402 44.0492 121.657 43.4925 121.288C42.9358 120.92 42.1891 121.066 41.8249 121.616C41.4606 122.166 41.6166 122.911 42.1734 123.28Z" fill="#FFE8BF"/>
<path d="M47.7248 124.133C48.2816 124.502 49.0282 124.355 49.3925 123.805C49.7567 123.256 49.6007 122.511 49.044 122.142C48.4872 121.773 47.7406 121.92 47.3763 122.47C47.012 123.02 47.1681 123.764 47.7248 124.133Z" fill="#FFE8BF"/>
<path d="M53.2705 124.983C53.8273 125.352 54.5739 125.205 54.9382 124.655C55.3024 124.105 55.1464 123.361 54.5897 122.992C54.0329 122.623 53.2863 122.77 52.922 123.319C52.5578 123.869 52.7138 124.614 53.2705 124.983Z" fill="#FFE8BF"/>
<path d="M58.822 125.836C59.3787 126.205 60.1253 126.058 60.4896 125.509C60.8539 124.959 60.6979 124.214 60.1411 123.845C59.5844 123.476 58.8378 123.623 58.4735 124.173C58.1092 124.723 58.2652 125.468 58.822 125.836Z" fill="#FFE8BF"/>
<path d="M64.3735 126.69C64.9302 127.059 65.6768 126.912 66.0411 126.362C66.4054 125.812 66.2493 125.068 65.6926 124.699C65.1359 124.33 64.3892 124.477 64.025 125.026C63.6607 125.576 63.8167 126.321 64.3735 126.69Z" fill="#FFE8BF"/>
<path d="M69.9192 127.54C70.4759 127.908 71.2225 127.762 71.5868 127.212C71.9511 126.662 71.795 125.917 71.2383 125.548C70.6816 125.18 69.9349 125.326 69.5707 125.876C69.2064 126.426 69.3624 127.171 69.9192 127.54Z" fill="#FFE8BF"/>
<path d="M75.4706 128.393C76.0273 128.762 76.774 128.615 77.1382 128.066C77.5025 127.516 77.3465 126.771 76.7898 126.402C76.233 126.033 75.4864 126.18 75.1221 126.73C74.7578 127.28 74.9139 128.024 75.4706 128.393Z" fill="#FFE8BF"/>
<path d="M81.0221 129.247C81.5788 129.616 82.3254 129.469 82.6897 128.919C83.054 128.369 82.898 127.624 82.3412 127.256C81.7845 126.887 81.0379 127.034 80.6736 127.583C80.3093 128.133 80.4653 128.878 81.0221 129.247Z" fill="#FFE8BF"/>
<path d="M86.5678 130.097C87.1245 130.465 87.8711 130.319 88.2354 129.769C88.5997 129.219 88.4437 128.474 87.8869 128.105C87.3302 127.736 86.5836 127.883 86.2193 128.433C85.855 128.983 86.011 129.728 86.5678 130.097Z" fill="#FFE8BF"/>
<path d="M92.1155 130.956C92.6722 131.325 93.4188 131.178 93.7831 130.628C94.1474 130.078 93.9913 129.333 93.4346 128.965C92.8779 128.596 92.1312 128.743 91.767 129.292C91.4027 129.842 91.5587 130.587 92.1155 130.956Z" fill="#FFE8BF"/>
<path d="M97.6669 131.809C98.2237 132.178 98.9703 132.031 99.3346 131.482C99.6988 130.932 99.5428 130.187 98.9861 129.818C98.4293 129.449 97.6827 129.596 97.3184 130.146C96.9542 130.696 97.1102 131.44 97.6669 131.809Z" fill="#FFE8BF"/>
<path d="M103.213 132.659C103.769 133.028 104.516 132.881 104.88 132.331C105.245 131.781 105.089 131.037 104.532 130.668C103.975 130.299 103.228 130.446 102.864 130.996C102.5 131.545 102.656 132.29 103.213 132.659Z" fill="#FFE8BF"/>
<path d="M24.7792 125.902C25.3359 126.271 26.0825 126.124 26.4468 125.574C26.8111 125.024 26.6551 124.279 26.0983 123.911C25.5416 123.542 24.795 123.689 24.4307 124.238C24.0664 124.788 24.2224 125.533 24.7792 125.902Z" fill="#FFE8BF"/>
<path d="M30.3306 126.755C30.8874 127.124 31.634 126.977 31.9983 126.428C32.3626 125.878 32.2065 125.133 31.6498 124.764C31.0931 124.395 30.3464 124.542 29.9822 125.092C29.6179 125.642 29.7739 126.387 30.3306 126.755Z" fill="#FFE8BF"/>
<path d="M35.8783 127.615C36.4351 127.983 37.1817 127.837 37.546 127.287C37.9103 126.737 37.7542 125.992 37.1975 125.623C36.6407 125.255 35.8941 125.401 35.5298 125.951C35.1656 126.501 35.3216 127.246 35.8783 127.615Z" fill="#FFE8BF"/>
<path d="M41.424 128.464C41.9808 128.833 42.7274 128.686 43.0917 128.137C43.456 127.587 43.2999 126.842 42.7432 126.473C42.1864 126.104 41.4398 126.251 41.0755 126.801C40.7113 127.351 40.8673 128.096 41.424 128.464Z" fill="#FFE8BF"/>
<path d="M46.9755 129.318C47.5322 129.687 48.2789 129.54 48.6431 128.99C49.0074 128.44 48.8514 127.695 48.2946 127.327C47.7379 126.958 46.9913 127.105 46.627 127.654C46.2627 128.204 46.4188 128.949 46.9755 129.318Z" fill="#FFE8BF"/>
<path d="M52.527 130.171C53.0837 130.54 53.8303 130.394 54.1946 129.844C54.5589 129.294 54.4028 128.549 53.8461 128.18C53.2894 127.811 52.5427 127.958 52.1785 128.508C51.8142 129.058 51.9702 129.803 52.527 130.171Z" fill="#FFE8BF"/>
<path d="M58.0727 131.021C58.6294 131.39 59.376 131.243 59.7403 130.693C60.1046 130.143 59.9486 129.399 59.3918 129.03C58.8351 128.661 58.0884 128.808 57.7242 129.358C57.3599 129.908 57.5159 130.652 58.0727 131.021Z" fill="#FFE8BF"/>
<path d="M63.6241 131.875C64.1809 132.244 64.9275 132.097 65.2918 131.547C65.656 130.997 65.5 130.252 64.9433 129.884C64.3865 129.515 63.6399 129.661 63.2756 130.211C62.9114 130.761 63.0674 131.506 63.6241 131.875Z" fill="#FFE8BF"/>
<path d="M69.1756 132.728C69.7323 133.097 70.479 132.95 70.8432 132.4C71.2075 131.851 71.0515 131.106 70.4947 130.737C69.938 130.368 69.1914 130.515 68.8271 131.065C68.4628 131.615 68.6189 132.359 69.1756 132.728Z" fill="#FFE8BF"/>
<path d="M74.7213 133.578C75.278 133.947 76.0247 133.8 76.3889 133.25C76.7532 132.7 76.5972 131.956 76.0404 131.587C75.4837 131.218 74.7371 131.365 74.3728 131.915C74.0085 132.464 74.1645 133.209 74.7213 133.578Z" fill="#FFE8BF"/>
<path d="M80.2728 134.432C80.8295 134.8 81.5761 134.654 81.9404 134.104C82.3047 133.554 82.1486 132.809 81.5919 132.44C81.0352 132.071 80.2885 132.218 79.9243 132.768C79.56 133.318 79.716 134.063 80.2728 134.432Z" fill="#FFE8BF"/>
<path d="M85.8205 135.291C86.3772 135.66 87.1238 135.513 87.4881 134.963C87.8524 134.413 87.6963 133.668 87.1396 133.3C86.5829 132.931 85.8362 133.077 85.472 133.627C85.1077 134.177 85.2637 134.922 85.8205 135.291Z" fill="#FFE8BF"/>
</g>
</g>
<path d="M22.3902 100.244C23.2524 100.815 24.4086 100.588 24.9727 99.7363C25.5368 98.8849 25.2952 97.7316 24.433 97.1604C23.5709 96.5892 22.4147 96.8165 21.8506 97.668C21.2865 98.5195 21.5281 99.6728 22.3902 100.244Z" fill="#C49A6C" stroke="#C49A6C" stroke-miterlimit="10"/>
<path d="M20.0424 119.915C20.9045 120.486 22.0608 120.259 22.6249 119.407C23.189 118.556 22.9473 117.403 22.0852 116.832C21.223 116.26 20.0668 116.488 19.5027 117.339C18.9386 118.191 19.1802 119.344 20.0424 119.915Z" fill="#C49A6C" stroke="#C49A6C" stroke-miterlimit="10"/>
<path d="M104.838 112.665C105.7 113.236 106.856 113.009 107.42 112.157C107.985 111.306 107.743 110.152 106.881 109.581C106.019 109.01 104.862 109.237 104.298 110.089C103.734 110.94 103.976 112.094 104.838 112.665Z" fill="#C49A6C" stroke="#C49A6C" stroke-miterlimit="10"/>
<path d="M102.447 132.701C103.31 133.272 104.466 133.045 105.03 132.193C105.594 131.342 105.352 130.188 104.49 129.617C103.628 129.046 102.472 129.273 101.908 130.125C101.344 130.976 101.585 132.129 102.447 132.701Z" fill="#C49A6C" stroke="#C49A6C" stroke-miterlimit="10"/>
</g>
<defs>
<clipPath id="clip0_190_603">
<rect width="102.907" height="131.342" fill="white" transform="translate(72.538) rotate(33.5237)"/>
</clipPath>
</defs>
</svg>
