<svg width="101" height="101" viewBox="0 0 101 101" fill="none" xmlns="http://www.w3.org/2000/svg">
<g clip-path="url(#clip0_202_925)">
<path d="M18.3271 6.39025L96.417 22.2451C97.7964 22.5251 98.6881 23.8826 98.4058 25.2729L94.1171 46.3959L11.0263 29.5257L15.3149 8.40271C15.5972 7.01243 16.9476 6.11018 18.3271 6.39025Z" fill="#FC4D5C" stroke="#FC4D5C" stroke-miterlimit="10"/>
<path d="M41.3934 21.0252C40.8014 23.4066 38.887 24.682 38.337 25.0186L30.0497 29.942L29.8815 30.0434L29.7663 29.8844L24.0552 22.1189C23.6825 21.5928 22.4167 19.6739 22.8003 17.2502C23.2478 14.4152 25.868 11.4376 28.8132 11.8387C31.2139 12.1644 32.5114 14.5576 32.8718 15.3262C33.5037 14.7569 35.6294 13.0608 37.9691 13.6977C40.8375 14.4769 42.0889 18.2406 41.3955 21.0256L41.3934 21.0252Z" fill="#CF1A20"/>
<path d="M88.0627 30.5005C87.4708 32.8819 85.5564 34.1573 85.0064 34.4939L76.719 39.4173L76.5509 39.5187L76.4356 39.3598L70.7245 31.5942C70.3518 31.0681 69.086 29.1492 69.4696 26.7255C69.9172 23.8906 72.5373 20.9129 75.4825 21.3141C77.8833 21.6397 79.1808 24.033 79.5411 24.8015C80.1731 24.2323 82.2987 22.5362 84.6384 23.173C87.5069 23.9522 88.7583 27.7159 88.0648 30.501L88.0627 30.5005Z" fill="#CF1A20"/>
<path d="M80.695 99.6808L2.60504 83.826C1.22561 83.5459 0.333963 82.1884 0.616236 80.7981L11.0266 29.5237L94.1175 46.3939L83.7071 97.6683C83.4248 99.0586 82.0744 99.9609 80.695 99.6808Z" fill="#CDCFD0"/>
<path d="M81.7081 94.6909L3.61816 78.8361C2.23873 78.556 1.34709 77.1986 1.62936 75.8083L11.0267 29.5237L94.1175 46.3939L84.7202 92.6785C84.438 94.0687 83.0875 94.971 81.7081 94.6909Z" fill="#E2E3E4"/>
<mask id="mask0_202_925" style="mask-type:luminance" maskUnits="userSpaceOnUse" x="8" y="40" width="77" height="52">
<path d="M84.9415 54.0058L16.5076 40.1115L8.9536 77.3172L77.3875 91.2115L84.9415 54.0058Z" fill="white"/>
</mask>
<g mask="url(#mask0_202_925)">
<path d="M26.3845 42.1168L16.841 40.1791C16.6569 40.1418 16.4771 40.2619 16.4394 40.4475L15.2561 46.2753C15.2185 46.4609 15.3372 46.6416 15.5213 46.679L25.0648 48.6167C25.2489 48.654 25.4287 48.5339 25.4664 48.3483L26.6497 42.5205C26.6873 42.3349 26.5686 42.1542 26.3845 42.1168Z" fill="#F7C7D9"/>
<path d="M40.5038 44.9835L30.9603 43.0458C30.7762 43.0085 30.5964 43.1286 30.5587 43.3142L29.3755 49.142C29.3378 49.3276 29.4565 49.5083 29.6407 49.5457L39.1841 51.4834C39.3683 51.5207 39.5481 51.4006 39.5858 51.215L40.769 45.3872C40.8067 45.2016 40.688 45.0209 40.5038 44.9835Z" fill="#F7C7D9"/>
<path d="M54.6232 47.8502L45.0797 45.9125C44.8956 45.8752 44.7158 45.9953 44.6781 46.1809L43.4949 52.0087C43.4572 52.1943 43.5759 52.375 43.76 52.4124L53.3035 54.3501C53.4877 54.3874 53.6675 54.2673 53.7052 54.0817L54.8884 48.2539C54.9261 48.0683 54.8074 47.8876 54.6232 47.8502Z" fill="#F7C7D9"/>
<path d="M68.7425 50.7169L59.1991 48.7792C59.0149 48.7419 58.8351 48.862 58.7974 49.0476L57.6142 54.8754C57.5765 55.061 57.6952 55.2417 57.8794 55.2791L67.4229 57.2168C67.607 57.2541 67.7868 57.134 67.8245 56.9484L69.0077 51.1206C69.0454 50.935 68.9267 50.7543 68.7425 50.7169Z" fill="#F7C7D9"/>
<path d="M82.8619 53.5836L73.3184 51.6459C73.1343 51.6086 72.9545 51.7287 72.9168 51.9143L71.7336 57.7421C71.6959 57.9277 71.8146 58.1084 71.9988 58.1458L81.5422 60.0835C81.7264 60.1208 81.9062 60.0007 81.9439 59.8151L83.1271 53.9873C83.1648 53.8017 83.0461 53.621 82.8619 53.5836Z" fill="#F7C7D9"/>
<path d="M24.3766 52.0063L14.8331 50.0687C14.649 50.0313 14.4692 50.1514 14.4315 50.337L13.2482 56.1648C13.2105 56.3504 13.3293 56.5312 13.5134 56.5685L23.0569 58.5062C23.241 58.5436 23.4208 58.4234 23.4585 58.2379L24.6418 52.41C24.6794 52.2244 24.5607 52.0437 24.3766 52.0063Z" fill="#F7C7D9"/>
<path d="M38.496 54.873L28.9525 52.9354C28.7683 52.898 28.5885 53.0181 28.5509 53.2037L27.3676 59.0315C27.3299 59.2171 27.4487 59.3979 27.6328 59.4352L37.1763 61.3729C37.3604 61.4103 37.5402 61.2901 37.5779 61.1046L38.7611 55.2767C38.7988 55.0911 38.6801 54.9104 38.496 54.873Z" fill="#F7C7D9"/>
<path d="M52.6153 57.7397L43.0718 55.8021C42.8877 55.7647 42.7079 55.8848 42.6702 56.0704L41.4869 61.8982C41.4493 62.0838 41.568 62.2646 41.7521 62.3019L51.2956 64.2396C51.4797 64.277 51.6595 64.1568 51.6972 63.9713L52.8805 58.1434C52.9181 57.9578 52.7994 57.7771 52.6153 57.7397Z" fill="#F7C7D9"/>
<path d="M66.7347 60.6063L57.1912 58.6686C57.0071 58.6313 56.8272 58.7514 56.7896 58.937L55.6063 64.7648C55.5686 64.9504 55.6874 65.1311 55.8715 65.1685L65.415 67.1062C65.5991 67.1436 65.7789 67.0234 65.8166 66.8378L66.9999 61.01C67.0375 60.8244 66.9188 60.6437 66.7347 60.6063Z" fill="#F7C7D9"/>
<path d="M80.8541 63.473L71.3106 61.5353C71.1264 61.498 70.9466 61.6181 70.9089 61.8037L69.7257 67.6315C69.688 67.8171 69.8068 67.9978 69.9909 68.0352L79.5344 69.9729C79.7185 70.0102 79.8983 69.8901 79.936 69.7045L81.1192 63.8767C81.1569 63.6911 81.0382 63.5104 80.8541 63.473Z" fill="#F7C7D9"/>
<path d="M22.3691 61.8936L12.8256 59.956C12.6415 59.9186 12.4617 60.0387 12.424 60.2243L11.2408 66.0522C11.2031 66.2377 11.3218 66.4185 11.506 66.4559L21.0494 68.3935C21.2336 68.4309 21.4134 68.3108 21.4511 68.1252L22.6343 62.2973C22.672 62.1118 22.5533 61.931 22.3691 61.8936Z" fill="#F7C7D9"/>
<path d="M36.4885 64.7603L26.945 62.8227C26.7609 62.7853 26.5811 62.9054 26.5434 63.091L25.3602 68.9189C25.3225 69.1044 25.4412 69.2852 25.6253 69.3226L35.1688 71.2602C35.353 71.2976 35.5328 71.1775 35.5704 70.9919L36.7537 65.164C36.7914 64.9785 36.6726 64.7977 36.4885 64.7603Z" fill="#F7C7D9"/>
<path d="M50.6078 67.627L41.0644 65.6894C40.8802 65.652 40.7004 65.7721 40.6627 65.9577L39.4795 71.7856C39.4418 71.9711 39.5605 72.1519 39.7447 72.1893L49.2882 74.1269C49.4723 74.1643 49.6521 74.0442 49.6898 73.8586L50.873 68.0307C50.9107 67.8452 50.792 67.6644 50.6078 67.627Z" fill="#F7C7D9"/>
<path d="M64.7272 70.4937L55.1837 68.5561C54.9996 68.5187 54.8198 68.6388 54.7821 68.8244L53.5989 74.6523C53.5612 74.8378 53.6799 75.0186 53.8641 75.056L63.4075 76.9936C63.5917 77.031 63.7715 76.9109 63.8092 76.7253L64.9924 70.8974C65.0301 70.7119 64.9114 70.5311 64.7272 70.4937Z" fill="#F7C7D9"/>
<path d="M78.8465 73.3604L69.3031 71.4228C69.1189 71.3854 68.9391 71.5055 68.9014 71.6911L67.7182 77.519C67.6805 77.7045 67.7992 77.8853 67.9834 77.9227L77.5269 79.8603C77.711 79.8977 77.8908 79.7776 77.9285 79.592L79.1117 73.7641C79.1494 73.5786 79.0307 73.3978 78.8465 73.3604Z" fill="#F7C7D9"/>
<path d="M20.3617 71.781L10.8182 69.8433C10.634 69.8059 10.4542 69.9261 10.4165 70.1117L9.2333 75.9395C9.19563 76.1251 9.31435 76.3058 9.49848 76.3432L19.042 78.2808C19.2261 78.3182 19.4059 78.1981 19.4436 78.0125L20.6268 72.1847C20.6645 71.9991 20.5458 71.8184 20.3617 71.781Z" fill="#F7C7D9"/>
<path d="M34.481 74.6477L24.9376 72.71C24.7534 72.6726 24.5736 72.7928 24.5359 72.9784L23.3527 78.8062C23.315 78.9918 23.4337 79.1725 23.6179 79.2099L33.1614 81.1475C33.3455 81.1849 33.5253 81.0648 33.563 80.8792L34.7462 75.0514C34.7839 74.8658 34.6652 74.6851 34.481 74.6477Z" fill="#F7C7D9"/>
<path d="M48.6004 77.5144L39.0569 75.5767C38.8728 75.5393 38.693 75.6595 38.6553 75.8451L37.472 81.6729C37.4344 81.8585 37.5531 82.0392 37.7372 82.0766L47.2807 84.0142C47.4648 84.0516 47.6446 83.9315 47.6823 83.7459L48.8656 77.9181C48.9032 77.7325 48.7845 77.5518 48.6004 77.5144Z" fill="#F7C7D9"/>
<path d="M62.7197 80.3811L53.1762 78.4434C52.9921 78.406 52.8123 78.5262 52.7746 78.7118L51.5914 84.5396C51.5537 84.7252 51.6724 84.9059 51.8565 84.9433L61.4 86.8809C61.5842 86.9183 61.764 86.7982 61.8017 86.6126L62.9849 80.7848C63.0226 80.5992 62.9039 80.4185 62.7197 80.3811Z" fill="#F7C7D9"/>
<path d="M76.8391 83.2478L67.2956 81.3101C67.1115 81.2727 66.9317 81.3929 66.894 81.5785L65.7108 87.4063C65.6731 87.5919 65.7918 87.7726 65.9759 87.81L75.5194 89.7476C75.7035 89.785 75.8834 89.6649 75.921 89.4793L77.1043 83.6515C77.142 83.4659 77.0232 83.2851 76.8391 83.2478Z" fill="#F7C7D9"/>
</g>
<path d="M35.2285 3.71872L35.2264 3.7183C33.3379 3.33487 31.4937 4.56701 31.1073 6.47035L28.1937 20.8205C27.8073 22.7238 29.0249 24.5776 30.9134 24.961L30.9155 24.9615C32.804 25.3449 34.6482 24.1127 35.0346 22.2094L37.9482 7.85927C38.3346 5.95593 37.117 4.10215 35.2285 3.71872Z" fill="#F7C7D9"/>
<path d="M81.8978 13.1942L81.8957 13.1938C80.0072 12.8103 78.163 14.0425 77.7766 15.9458L74.8631 30.2959C74.4766 32.1993 75.6943 34.0531 77.5827 34.4365L77.5848 34.4369C79.4733 34.8203 81.3175 33.5882 81.7039 31.6849L84.6175 17.3347C85.0039 15.4314 83.7863 13.5776 81.8978 13.1942Z" fill="#F7C7D9"/>
<path d="M19.197 36.6646L19.33 36.0093L21.0116 36.3508L20.6965 37.9027C20.5015 38.0294 20.2354 38.1218 19.9002 38.1806C19.565 38.2394 19.238 38.2364 18.9213 38.1721C18.517 38.09 18.1824 37.9324 17.9169 37.7014C17.6513 37.4703 17.4741 37.1785 17.3885 36.8309C17.3007 36.4829 17.2961 36.1212 17.372 35.7474C17.4543 35.342 17.6109 34.9977 17.8437 34.717C18.0764 34.4362 18.3713 34.2446 18.7305 34.1426C19.0049 34.0628 19.3261 34.0624 19.6949 34.1373C20.1742 34.2346 20.5288 34.4115 20.7583 34.6702C20.9858 34.9285 21.1041 35.2434 21.1087 35.6161L20.3037 35.6057C20.2883 35.4036 20.2169 35.2316 20.0895 35.0899C19.9621 34.9481 19.7856 34.8554 19.5606 34.8097C19.2188 34.7403 18.9258 34.7946 18.6814 34.9724C18.4349 35.1497 18.2692 35.4528 18.1823 35.8813C18.0884 36.3433 18.1202 36.7105 18.2775 36.983C18.4348 37.2555 18.6781 37.4251 19.0094 37.4924C19.1719 37.5254 19.3429 37.5273 19.5208 37.4957C19.6986 37.464 19.854 37.4146 19.9915 37.3463L20.0917 36.8528L19.1978 36.6713L19.197 36.6646Z" fill="#32479D"/>
<path d="M21.8088 38.6861L22.5998 34.7904L23.3791 34.9486L22.5881 38.8444L21.8088 38.6861Z" fill="#32479D"/>
<path d="M23.8592 39.1024L24.6502 35.2067L26.2922 35.5401C26.7047 35.6239 26.9976 35.7205 27.171 35.8279C27.3445 35.9352 27.4689 36.0917 27.5452 36.2931C27.6215 36.4944 27.636 36.7117 27.5895 36.9406C27.5302 37.2325 27.3957 37.4567 27.1861 37.6131C26.9764 37.7695 26.6979 37.8376 26.3484 37.8169C26.4972 37.9499 26.6146 38.0875 26.6987 38.2292C26.7848 38.3713 26.8901 38.6113 27.0142 38.9514L27.3307 39.8073L26.3972 39.6177L26.0048 38.6546C25.8661 38.3116 25.7674 38.0926 25.7107 37.998C25.654 37.9034 25.5854 37.8348 25.5081 37.7884C25.4307 37.7421 25.3045 37.7012 25.1253 37.6648L24.9669 37.6327L24.6369 39.2581L23.8576 39.0999L23.8592 39.1024ZM25.0948 37.0135L25.672 37.1307C26.047 37.2069 26.2838 37.2375 26.384 37.225C26.4842 37.2125 26.5682 37.1727 26.6361 37.1056C26.7039 37.0385 26.7506 36.9474 26.7745 36.8298C26.8009 36.6996 26.7873 36.5853 26.7347 36.4915C26.6821 36.3977 26.5949 36.3253 26.472 36.2785C26.4112 36.2574 26.2224 36.2148 25.9057 36.1504L25.2973 36.0269L25.0964 37.0161L25.0948 37.0135Z" fill="#32479D"/>
<path d="M28.2997 40.004L29.0838 36.1419L29.8631 36.3001L29.212 39.507L31.152 39.9009L31.0189 40.5561L28.2976 40.0036L28.2997 40.004Z" fill="#32479D"/>
<path d="M32.5692 40.8708L33.2263 37.6346L32.0802 37.4019L32.2141 36.7424L35.2855 37.366L35.1516 38.0255L34.0077 37.7932L33.3506 41.0295L32.5713 40.8713L32.5692 40.8708Z" fill="#32479D"/>
<path d="M38.6037 42.0961L37.7556 41.9239L37.5976 40.9712L36.0535 40.6577L35.5552 41.4771L34.728 41.3092L37.0234 37.7189L37.8485 37.8864L38.6058 42.0965L38.6037 42.0961ZM37.481 40.2631L37.2409 38.7099L36.4266 40.049L37.481 40.2631Z" fill="#32479D"/>
<path d="M39.5622 42.2908L40.3463 38.4286L41.1256 38.5869L40.4745 41.7938L42.4145 42.1876L42.2815 42.8429L39.5601 42.2903L39.5622 42.2908Z" fill="#32479D"/>
<path d="M43.3733 43.0645L44.1643 39.1688L44.9436 39.3271L44.5923 41.0575L46.521 39.6473L47.5712 39.8605L45.8089 41.0815L46.8599 43.7702L45.8492 43.5651L45.1575 41.5222L44.3919 42.0446L44.1531 43.2207L43.3738 43.0624L43.3733 43.0645Z" fill="#32479D"/>
<path d="M54.5963 45.3431L55.3873 41.4474L56.7188 41.7177C57.0188 41.7786 57.2442 41.8441 57.3949 41.914C57.6055 42.0093 57.776 42.1423 57.905 42.3084C58.0738 42.5242 58.1811 42.7756 58.2261 43.0668C58.2732 43.3585 58.2606 43.6773 58.1902 44.0239C58.1301 44.32 58.0434 44.5757 57.9286 44.7886C57.8138 45.0014 57.6875 45.1748 57.5489 45.3019C57.4123 45.4294 57.2697 45.5229 57.1251 45.5832C56.9805 45.6435 56.8131 45.6773 56.6249 45.685C56.4368 45.6927 56.2237 45.6735 55.9903 45.6261L54.5963 45.3431ZM55.2002 44.9868L56.0254 45.1544C56.2796 45.206 56.4843 45.2235 56.64 45.2048C56.7956 45.1861 56.9239 45.1422 57.0268 45.0734C57.1724 44.9762 57.3015 44.8318 57.4104 44.6374C57.5189 44.4452 57.605 44.2024 57.6647 43.9084C57.7474 43.501 57.7443 43.1745 57.6553 42.9291C57.5663 42.6836 57.4357 42.504 57.261 42.392C57.1341 42.3116 56.9188 42.2394 56.6145 42.1776L55.8019 42.0126L55.1977 44.9885L55.2002 44.9868Z" fill="#32479D"/>
<path d="M58.9971 46.2367L59.7881 42.3409L60.2986 42.4446L59.9063 44.3767L62.2177 42.8342L62.9116 42.9751L60.9702 44.2232L62.1919 46.8831L61.5168 46.7461L60.5419 44.4948L59.7822 44.9878L59.5081 46.3382L58.9976 46.2346L58.9971 46.2367Z" fill="#32479D"/>
<path d="M51.042 41.851C50.8198 41.3532 50.276 41.2209 49.9987 41.4117C49.7844 41.5585 49.6936 41.9205 49.8243 42.2707L50.6375 43.8221L51.9892 42.7212C52.2544 42.4514 52.3095 42.0733 52.1657 41.8517C51.9826 41.5674 51.4337 41.4822 51.0441 41.8514L51.042 41.851Z" fill="#32479D"/>
</g>
<defs>
<clipPath id="clip0_202_925">
<rect width="84.9988" height="84.9988" fill="white" transform="translate(16.9125) rotate(11.4769)"/>
</clipPath>
</defs>
</svg>
