<svg width="240" height="239" viewBox="0 0 240 239" fill="none" xmlns="http://www.w3.org/2000/svg">
<g clip-path="url(#clip0_188_531)">
<path d="M172.14 176.545C174.454 171.216 173.567 164.813 170.133 160.098C167.433 156.379 164.771 153.964 164.694 149.095C164.617 145.491 165.658 141.888 166.507 138.399C168.59 130.003 170.249 121.415 169.979 112.751C169.709 104.087 167.163 96.0358 163.999 87.9465C162.649 84.4961 160.219 80.279 159.871 76.5602C159.563 73.1865 162.803 69.7361 163.498 66.1324C164.81 59.385 162.34 52.2159 156.515 48.3054C151.191 44.74 144.093 44.395 138.884 48.3054C136.57 50.0689 134.756 52.4459 133.792 55.2062C132.635 58.6182 133.792 60.9952 133.753 64.2539L135.181 60.8802C136.84 60.4584 136.608 60.3818 134.486 60.6118C133.29 60.6501 132.133 60.6885 130.937 60.7268C129.163 60.7268 127.388 60.7651 125.613 60.7268C121.022 60.5351 116.624 59.7684 112.381 58.0048C105.244 55.0145 99.1095 51.1807 91.2393 50.4907C89.7348 50.3756 87.6901 51.4491 87.0728 52.8676C81.7489 65.174 93.5927 77.4803 94.48 89.595C94.9043 95.6907 94.2485 102.591 100.537 106.08C103.045 107.46 105.282 106.54 106.787 109.186C108.06 111.409 108.716 113.978 109.989 116.24C116.084 126.706 129.471 125.594 138.962 120.84C150.149 115.243 158.328 104.93 162.032 93.1221C163.884 87.2181 154.548 84.6878 152.734 90.5918C149.841 99.8695 143.437 107.729 134.756 112.253C131.091 114.131 126.385 115.703 122.257 114.514C118.129 113.326 117.319 108.879 115.621 105.39C113.924 101.901 111.416 99.0644 107.597 98.106C104.588 97.3392 104.24 96.8025 104.125 93.3138C104.048 90.8985 104.125 88.5216 103.739 86.1063C102.967 81.0841 101 76.4836 99.1095 71.8064C97.7978 68.586 93.9013 61.2252 95.4059 57.7365L91.2393 60.1134C97.9907 60.7268 103.816 64.9439 109.989 67.3592C116.663 70.0045 123.839 70.5029 130.976 70.3879C135.798 70.3112 143.36 70.5796 143.437 63.9088C143.437 61.4552 141.971 59.6534 143.514 57.3148C145.134 54.8228 148.143 54.5928 150.651 55.9729C153.313 57.4681 154.509 60.4584 154.277 63.4104C153.969 66.8608 151.384 69.0461 150.42 72.1898C148.568 78.2854 152.889 85.7613 155.049 91.3202C157.75 98.2977 160.103 105.237 160.373 112.789C160.643 120.342 159.293 127.818 157.441 135.178C155.821 141.696 154.007 148.75 155.936 155.421C156.939 158.794 158.868 161.401 161.067 164.085C162.495 165.849 165.002 169.184 163.884 171.753C161.453 177.35 169.748 182.257 172.217 176.583L172.14 176.545Z" fill="#FFF5EB"/>
<path d="M163.305 172.864C161.106 183.944 145.751 191.305 152.619 204.148C160.489 218.946 180.087 212.429 192.509 208.863C206.938 204.723 222.91 198.972 232.94 187.279C237.531 181.912 240.81 175.203 239.846 168.034C238.804 160.213 232.863 154.194 231.088 146.565C229.236 138.514 230.317 129.965 231.706 121.952C232.979 114.63 235.062 107.23 230.124 100.79C226.15 95.5757 219.707 93.5055 215.117 89.02C209.638 83.6911 207.324 75.9852 205.858 68.701C204.16 60.2284 203.581 51.5641 200.881 43.3216C198.72 36.7275 195.441 30.5935 191.236 25.0728C182.864 14.1466 171.021 5.78902 157.595 2.14695C144.17 -1.49512 129.085 -0.191645 116.084 5.36731C101.849 11.463 91.8952 22.1975 84.0637 35.194C80.09 41.788 75.4605 48.7655 73.7631 56.3947C73.0686 59.5767 73.5702 63.6021 71.1011 66.0558C69.0178 68.126 65.3142 68.6244 62.5366 69.1611C55.7852 70.4646 49.4583 71.5764 43.2856 74.7584C37.113 77.9404 31.6734 82.3492 27.3911 87.6398C17.0519 100.33 15.9717 115.09 15.6245 130.808C15.4316 139.702 14.7372 148.328 10.6478 156.418C7.25285 163.127 1.04163 170.296 0.0771516 177.887C-0.964482 186.206 8.95032 188.544 15.123 190.576C23.456 193.337 32.1749 194.985 40.8937 195.675C52.3903 196.595 73.1072 195.599 71.3326 179.037C70.4453 170.909 62.2665 164.123 62.8452 155.842C63.1152 152.085 66.1244 149.095 67.7447 145.836C69.2107 142.808 69.9437 139.741 69.5194 136.405C68.7092 129.658 63.3467 124.866 61.9193 118.425C60.8005 113.403 66.5488 115.55 69.5579 116.048C73.1072 116.661 76.5022 116.585 79.8971 115.281C82.9834 114.093 85.6454 112.099 87.6515 109.531C88.616 108.304 89.3104 107.039 89.9277 105.659C90.1591 105.122 91.0079 101.211 91.5866 101.058C91.6637 101.058 95.483 104.355 95.7531 104.585C97.0648 105.774 98.2993 107.077 99.4181 108.457C101.81 111.486 103.623 114.936 104.742 118.617C108.793 131.958 101.733 153.427 85.4139 154.692C77.1966 155.344 70.3295 148.673 64.8127 143.498C60.299 139.281 53.4705 146.028 57.9842 150.284C68.4777 160.06 81.0159 168.532 95.5602 161.516C108.098 155.459 115.467 141.082 115.66 127.588C115.853 114.093 108.368 99.2561 96.1775 93.1604C89.6576 89.9401 84.1022 93.1221 81.8646 99.5245C80.8616 102.438 79.7814 104.892 76.7336 106.195C72.8757 107.844 68.8635 105.774 64.8899 105.582C58.9101 105.275 53.2004 108.419 52.1588 114.63C51.1172 120.84 55.0908 126.859 57.9457 132.265C59.4502 135.102 60.6462 137.785 59.3731 140.929C58.1 144.073 55.5923 146.833 54.3192 150.13C51.6573 157.184 54.3192 164.162 57.5599 170.526C59.103 173.554 62.9995 178.653 61.5335 182.219C60.5305 184.672 57.0583 185.516 54.7436 185.976C47.105 187.509 38.1932 186.129 30.6317 184.672C26.5424 183.867 22.4916 182.832 18.5179 181.567C16.5118 180.915 14.5443 180.264 12.6153 179.497C11.8052 179.19 10.8407 178.922 10.1077 178.462C9.1818 177.925 8.71885 180.033 10.2234 177.273C13.8113 170.641 17.9007 164.047 20.8712 157.108C27.4297 141.581 23.1088 124.827 27.0825 108.917C30.3231 95.9974 40.5851 84.9562 53.3933 80.8157C64.3498 77.2503 79.9743 78.5538 82.3276 63.9855C83.6007 56.203 86.3398 50.3373 90.2749 43.5516C94.2099 36.7658 98.3379 30.0184 104.048 24.4978C124.533 4.83058 157.75 4.90726 178.042 24.6128C189.153 35.424 192.895 48.5738 195.21 63.4488C197.409 77.4804 201.035 91.4353 213.458 99.9079C215.734 101.441 218.241 102.745 220.363 104.508C223.835 107.384 223.951 110.297 223.218 114.63C221.984 122.259 220.402 129.85 220.479 137.632C220.479 144.878 221.906 151.97 225.224 158.411C226.922 161.708 229.468 164.928 230.162 168.647C230.857 172.366 229.352 176.085 227.153 179.152C218.434 191.381 201.382 196.519 187.571 200.314C180.897 202.154 171.831 205.988 165.08 203.074C158.328 200.161 161.145 194.218 164.539 189.695C167.934 185.171 171.484 181.03 172.564 175.433C173.76 169.414 164.462 166.845 163.266 172.903L163.305 172.864Z" fill="#FFF5EB"/>
<path d="M162.495 204.301C142.549 212.237 121.254 215.764 99.7653 214.231C89.349 213.502 78.8941 211.892 68.6321 210.09C58.9487 208.403 49.1111 206.218 40.3151 201.771C38.1546 200.697 36.0328 199.509 34.0653 198.129C32.6764 197.132 30.6317 195.522 33.8338 195.215C35.4155 195.062 37.8074 196.442 39.3892 196.749C42.0511 197.247 44.8288 197.477 47.5293 197.745C57.8299 198.896 68.2848 199.471 78.624 198.244C97.8749 195.944 113.924 186.934 125.845 171.791C132.75 163.012 137.959 153.159 142.472 142.999C146.755 133.415 150.497 120.112 162.148 117.351L156.052 112.713C157.171 123.064 153.004 132.878 152.927 143.191C152.927 147.791 153.815 152.277 155.821 156.417C158.29 161.516 161.955 165.427 161.337 171.522C160.296 181.989 149.108 187.509 147.256 197.63C145.829 205.451 155.821 212.007 162.495 213.541C168.552 214.921 171.136 205.681 165.041 204.301C162.572 203.726 158.135 201.694 156.939 199.202C156.052 197.285 162.032 190.806 163.498 188.966C168.937 181.989 172.448 173.708 170.481 164.737C169.516 160.366 166.931 156.878 164.848 153.005C162.765 149.133 162.302 144.724 162.688 140.239C163.459 131 166.661 122.144 165.658 112.751C165.311 109.607 162.842 107.345 159.563 108.112C148.876 110.642 142.434 119.498 138.113 128.968C133.445 139.242 129.201 149.632 123.067 159.139C116.933 168.647 109.449 176.698 99.7267 182.104C90.0048 187.509 77.891 189.349 66.5488 189.349C61.032 189.349 55.5538 189.004 50.0755 188.429C47.4908 188.161 44.8674 188.008 42.3212 187.548C39.4277 187.049 36.6501 185.669 33.6795 185.554C24.8835 185.209 18.4793 196.212 24.8063 202.998C31.1333 209.783 43.2856 213.924 52.4289 216.377C63.231 219.291 74.4575 220.71 85.5297 222.205C112.651 225.885 139.463 223.662 165.002 213.502C170.712 211.24 168.204 201.963 162.456 204.263L162.495 204.301Z" fill="#FFF5EB"/>
<path d="M86.7256 160.29C86.4555 165.618 89.6576 170.257 93.4383 173.708C97.4506 177.388 102.003 180.57 106.324 183.829C107.25 184.519 108.986 184.596 110.027 184.327C111.069 184.059 112.342 183.177 112.921 182.142C113.499 181.03 113.808 179.688 113.422 178.462C113.036 177.235 112.265 176.391 111.223 175.586C110.182 174.781 109.217 174.053 108.214 173.324C108.098 173.248 107.288 172.558 107.79 173.018C108.291 173.478 107.404 172.711 107.365 172.711C106.864 172.328 106.362 171.944 105.861 171.561C104.125 170.219 102.35 168.877 100.691 167.42C99.9582 166.769 99.2638 166.117 98.6079 165.427C98.415 165.197 97.8749 164.353 97.6435 164.315C97.8749 164.392 98.2993 165.197 97.7592 164.468C97.6049 164.277 97.4891 164.085 97.3348 163.855C97.0648 163.433 96.8719 163.05 96.6404 162.628C96.3318 162.053 96.7561 162.82 96.7947 163.012C96.7561 162.743 96.6018 162.475 96.5247 162.206C96.4861 162.015 96.4089 161.861 96.3703 161.67C96.3703 161.555 96.1775 160.596 96.2932 161.478C96.4089 162.36 96.2932 161.478 96.2932 161.286C96.2932 160.98 96.2932 160.711 96.2932 160.405C96.4089 157.913 93.9784 155.497 91.4708 155.612C88.7317 155.727 86.8028 157.721 86.6484 160.405L86.7256 160.29Z" fill="#FFF5EB"/>
<path d="M212.223 193.183C206.745 202.806 196.676 212.659 186.8 217.796C171.368 225.809 153.622 227.764 136.57 228.531C119.518 229.297 102.774 229.642 86.5327 225.157C75.1905 222.013 63.5396 215.764 54.5121 208.135C49.8055 204.148 42.9384 210.895 47.6837 214.921C66.2402 230.601 89.0018 237.617 113.075 238.46C127.812 238.958 143.167 238.652 157.75 236.543C165.62 235.431 173.22 233.169 180.665 230.486C185.989 228.569 191.159 226.767 195.827 223.547C205.317 216.991 214.808 208.135 220.556 198.052C223.642 192.685 215.309 187.854 212.223 193.222V193.183Z" fill="#FFF5EB"/>
<path d="M7.13712 186.934C5.05386 195.292 7.40718 204.991 13.8499 210.934C15.9717 212.889 18.3636 214.192 21.257 214.461C23.0703 214.614 24.922 214.346 26.6967 214.039C30.3231 213.426 34.0653 212.199 37.2673 210.359C39.4278 209.093 40.4308 205.988 39.0034 203.803C37.576 201.618 34.7211 200.736 32.4064 202.078C31.8277 202.423 31.249 202.691 30.6703 202.959C29.783 203.381 31.5576 202.614 30.6703 202.959C30.246 203.113 29.8602 203.266 29.4358 203.419C28.0469 203.918 26.5809 204.301 25.1535 204.608C24.7677 204.685 24.3819 204.761 23.9962 204.838C22.723 205.03 24.8449 204.8 23.8804 204.838C23.2631 204.876 22.6459 204.876 22.0286 204.915C21.9129 204.915 21.7586 204.915 21.6428 204.915C22.3373 205.03 22.4144 205.03 21.8743 204.915C21.4499 204.761 21.4114 204.761 21.7971 204.915C22.1444 205.068 22.1444 205.068 21.72 204.876C21.6043 204.8 20.4469 204.071 21.0256 204.493C21.6043 204.915 20.524 204.033 20.4083 203.918C20.1383 203.688 19.9068 203.419 19.6753 203.151C19.521 202.959 19.3667 202.806 19.2124 202.614C18.8651 202.193 18.9037 202.231 19.2895 202.729C18.788 202.308 18.4408 201.503 18.0936 200.927C17.8621 200.506 17.6306 200.084 17.4377 199.662C17.322 199.394 16.7433 198.474 17.322 199.509C16.9362 198.819 16.7433 197.899 16.5118 197.132C16.3189 196.442 16.2032 195.752 16.0489 195.023C15.9717 194.487 15.9717 194.563 16.0489 195.253C16.0489 195.023 16.0103 194.793 15.9717 194.525C15.9717 194.18 15.9331 193.797 15.9331 193.452C15.9331 192.608 15.9331 191.803 16.0489 190.96C16.1646 189.771 15.8174 191.995 16.0489 190.806C16.1646 190.346 16.2418 189.886 16.3575 189.426C16.9748 187.011 15.5859 184.097 13.0011 183.522C10.4163 182.947 7.71581 184.251 7.05997 186.858L7.13712 186.934Z" fill="#FFF5EB"/>
<path d="M110.104 80.8541C113.152 79.0522 116.354 77.5187 119.672 76.2535" stroke="#FFF5EB" stroke-width="0.5" stroke-miterlimit="10" stroke-linecap="round"/>
<path d="M122.257 108.38L123.993 105.812" stroke="#FFF5EB" stroke-width="0.5" stroke-miterlimit="10" stroke-linecap="round"/>
<path d="M91.5094 122.795C93.2069 122.949 96.6404 120.764 96.6404 119.077" stroke="#FFF5EB" stroke-width="0.5" stroke-miterlimit="10" stroke-linecap="round"/>
<path d="M76.425 124.789C79.2027 125.862 82.4819 125.632 85.1053 124.252" stroke="#FFF5EB" stroke-width="0.5" stroke-miterlimit="10" stroke-linecap="round"/>
<path d="M89.6576 130.425C90.7378 131.076 90.5449 132.226 90.5449 134.258C90.5449 134.718 91.0079 138.207 90.5449 138.322C89.1946 138.667 88.616 138.399 87.6515 137.747" stroke="#FFF5EB" stroke-width="0.5" stroke-miterlimit="10" stroke-linecap="round"/>
<path d="M83.755 145.875C86.2626 146.45 89.4647 143.536 91.5094 145.223" stroke="#FFF5EB" stroke-width="0.5" stroke-miterlimit="10" stroke-linecap="round"/>
</g>
<defs>
<clipPath id="clip0_188_531">
<rect width="240" height="238.652" fill="white"/>
</clipPath>
</defs>
</svg>
