<svg width="38" height="37" viewBox="0 0 38 37" fill="none" xmlns="http://www.w3.org/2000/svg">
<path d="M20.9532 0.446411C23.0906 0.451851 24.1755 0.462731 25.1121 0.488118L25.4807 0.500812C25.9063 0.515318 26.3261 0.533452 26.8334 0.555212C28.8549 0.645879 30.2342 0.950522 31.4445 1.39842C32.6984 1.85901 33.7548 2.4828 34.8111 3.48921C35.7772 4.3957 36.5247 5.49221 37.0017 6.70246C37.471 7.85757 37.7902 9.17406 37.8852 11.1053C37.908 11.5876 37.927 11.9884 37.9422 12.3964L37.9536 12.7482C37.9821 13.6403 37.9935 14.6758 37.9973 16.7158L37.9992 18.0685V20.444C38.0038 21.7667 37.9893 23.0893 37.9555 24.4116L37.9441 24.7634C37.9289 25.1714 37.9099 25.5722 37.8871 26.0545C37.7921 27.9857 37.4691 29.3004 37.0017 30.4573C36.5261 31.6682 35.7784 32.765 34.8111 33.6706C33.8611 34.5923 32.7123 35.3058 31.4445 35.7614C30.2342 36.2093 28.8549 36.5139 26.8334 36.6046C26.3826 36.6248 25.9317 36.643 25.4807 36.659L25.1121 36.6699C24.1755 36.6952 23.0906 36.7079 20.9532 36.7116L19.5359 36.7134H17.0489C15.6625 36.7179 14.2761 36.704 12.89 36.6717L12.5215 36.6608C12.0704 36.6445 11.6195 36.6258 11.1687 36.6046C9.14723 36.5139 7.7679 36.2093 6.55576 35.7614C5.2879 35.3069 4.1395 34.5933 3.19103 33.6706C2.22407 32.7644 1.47585 31.6678 0.998545 30.4573C0.529269 29.3022 0.210085 27.9857 0.11509 26.0545C0.0939231 25.6242 0.0749239 25.1939 0.0580933 24.7634L0.048594 24.4116C0.0135827 23.0894 -0.00225154 21.7667 0.00109625 20.444V16.7158C-0.00420632 15.3931 0.00972778 14.0705 0.0428942 12.7482L0.0561935 12.3964C0.0713927 11.9884 0.0903917 11.5876 0.113191 11.1053C0.208186 9.17406 0.527369 7.85938 0.996645 6.70246C1.47374 5.49097 2.22345 4.39411 3.19293 3.48921C4.14116 2.56708 5.2888 1.85355 6.55576 1.39842C7.7679 0.950522 9.14533 0.645879 11.1687 0.555212C11.6741 0.533452 12.0959 0.515318 12.5215 0.500812L12.89 0.489931C14.2754 0.457713 15.6612 0.44381 17.047 0.448224L20.9532 0.446411ZM19.0001 9.51315C16.4807 9.51315 14.0645 10.4684 12.283 12.1687C10.5014 13.8691 9.50061 16.1752 9.50061 18.5799C9.50061 20.9845 10.5014 23.2907 12.283 24.9911C14.0645 26.6914 16.4807 27.6466 19.0001 27.6466C21.5196 27.6466 23.9358 26.6914 25.7173 24.9911C27.4988 23.2907 28.4996 20.9845 28.4996 18.5799C28.4996 16.1752 27.4988 13.8691 25.7173 12.1687C23.9358 10.4684 21.5196 9.51315 19.0001 9.51315ZM19.0001 13.1399C19.7486 13.1397 20.4898 13.2803 21.1814 13.5536C21.8729 13.8269 22.5013 14.2275 23.0307 14.7326C23.5601 15.2376 23.98 15.8373 24.2666 16.4972C24.5531 17.1572 24.7007 17.8646 24.7008 18.579C24.7009 19.2934 24.5536 20.0008 24.2673 20.6609C23.981 21.3209 23.5612 21.9207 23.032 22.4259C22.5029 22.9312 21.8746 23.332 21.1831 23.6055C20.4917 23.879 19.7505 24.0198 19.002 24.0199C17.4904 24.0199 16.0406 23.4468 14.9717 22.4266C13.9028 21.4064 13.3023 20.0227 13.3023 18.5799C13.3023 17.1371 13.9028 15.7534 14.9717 14.7332C16.0406 13.713 17.4904 13.1399 19.002 13.1399M28.9765 6.79313C28.3467 6.79313 27.7426 7.03194 27.2972 7.45703C26.8518 7.88211 26.6016 8.45865 26.6016 9.05982C26.6016 9.66098 26.8518 10.2375 27.2972 10.6626C27.7426 11.0877 28.3467 11.3265 28.9765 11.3265C29.6064 11.3265 30.2104 11.0877 30.6558 10.6626C31.1012 10.2375 31.3514 9.66098 31.3514 9.05982C31.3514 8.45865 31.1012 7.88211 30.6558 7.45703C30.2104 7.03194 29.6064 6.79313 28.9765 6.79313Z" fill="#273AAA"/>
</svg>
