<svg width="99" height="79" viewBox="0 0 99 79" fill="none" xmlns="http://www.w3.org/2000/svg">
<g clip-path="url(#clip0_190_483)">
<path d="M91.7974 21.508L21.9665 2.18101C18.4852 1.21749 14.8819 3.25858 13.9184 6.73991L2.18108 49.1484C1.21756 52.6298 3.25865 56.233 6.73998 57.1965L76.5708 76.5235C80.0521 77.487 83.6554 75.4459 84.6189 71.9646L96.3563 29.5561C97.3198 26.0748 95.2787 22.4715 91.7974 21.508Z" stroke="#FFF5EB" stroke-miterlimit="10"/>
<path d="M17.4201 2.57141L48.3908 37.1256" stroke="#FFF5EB" stroke-miterlimit="10"/>
<path d="M95.4621 23.9576L48.1562 37.2816" stroke="#FFF5EB" stroke-miterlimit="10"/>
<path d="M50.9805 27.9279C53.5392 25.5446 57.2792 24.5041 60.7053 25.2094C62.5375 25.584 64.404 26.579 65.1267 28.3027C65.6477 29.5583 65.4824 31.0067 65.0439 32.2986C63.5423 36.66 59.3231 39.3785 55.5113 41.9817C51.6432 44.6282 48.3707 46.9316 44.8277 49.9993" fill="#FC4D5C"/>
<path d="M51.2892 28.2488C53.4111 26.3262 56.2403 25.3059 59.1073 25.4517C61.9743 25.5974 65.3083 27.1679 64.9788 30.5656C64.6983 33.5205 62.5605 36.0055 60.399 37.8583C58.0614 39.8684 55.3961 41.4935 52.8685 43.2597C49.9852 45.2734 47.1719 47.38 44.5103 49.6833C44.0759 50.0562 44.6951 50.6913 45.1295 50.3184C47.9808 47.8615 51.0005 45.6206 54.0952 43.4814C56.8448 41.5779 59.772 39.8045 62.1632 37.4412C64.2315 35.3933 66.2287 32.4057 65.8457 29.3481C65.4627 26.2906 62.6075 24.9851 59.964 24.6436C56.6015 24.2135 53.174 25.3479 50.67 27.6137C50.2473 27.9973 50.8665 28.6323 51.2892 28.2488Z" fill="#FFF5EB"/>
<path d="M51.042 27.9448C50.0729 24.5852 47.4 21.7698 44.0988 20.6132C42.3348 19.9925 40.2223 19.8862 38.7162 20.993C37.6237 21.8021 37.0208 23.1294 36.7327 24.4629C35.7782 28.9756 37.9992 33.4767 39.9302 37.6693C41.8871 41.9279 43.3525 45.5427 44.814 49.9954" fill="#FC4D5C"/>
<path d="M51.4718 27.8283C50.6022 24.9599 48.6591 22.4863 46.0441 21.0044C43.7326 19.7023 40.423 18.9482 38.2053 20.8443C35.9876 22.7405 35.8123 26.512 36.3271 29.2528C36.9217 32.4498 38.4312 35.3996 39.7691 38.3313C41.5247 42.1736 43.0841 46.0867 44.4017 50.1022C44.5758 50.6435 45.4402 50.4191 45.2593 49.8758C44.2997 46.9605 43.2254 44.087 42.0209 41.2584C40.8165 38.4299 39.3538 35.6034 38.2479 32.6844C37.2327 29.9965 36.5172 27.0236 37.2683 24.1769C37.6603 22.6808 38.5297 21.2948 40.0701 20.8084C41.4268 20.3742 42.9384 20.6307 44.2424 21.1314C47.3041 22.3027 49.6734 24.9384 50.621 28.0565C50.7864 28.6028 51.6439 28.3764 51.4786 27.8302L51.4718 27.8283Z" fill="#FFF5EB"/>
</g>
<defs>
<clipPath id="clip0_190_483">
<rect width="86.2464" height="57.7932" fill="white" transform="translate(15.4158) rotate(15.4704)"/>
</clipPath>
</defs>
</svg>
