<svg width="41" height="32" viewBox="0 0 41 32" fill="none" xmlns="http://www.w3.org/2000/svg">
<path d="M3.67861 31.6918C2.63083 31.6918 1.75617 31.3483 1.05461 30.6612C0.353056 29.9741 0.00151852 29.1168 0 28.0891V4.06386C0 3.03771 0.351537 2.1811 1.05461 1.49402C1.75769 0.806949 2.63235 0.462669 3.67861 0.461182H37.3214C38.3692 0.461182 39.2438 0.805462 39.9454 1.49402C40.6469 2.18258 40.9985 3.03919 41 4.06386V28.0891C41 29.1153 40.6492 29.9719 39.9477 30.659C39.2461 31.346 38.3707 31.6903 37.3214 31.6918H3.67861ZM20.5 16.333L38.7222 4.66616L38.0207 2.69194L20.5 13.8457L2.97933 2.69194L2.27778 4.66616L20.5 16.333Z" fill="#273AAA"/>
</svg>
