<svg width="38" height="37" viewBox="0 0 38 37" fill="none" xmlns="http://www.w3.org/2000/svg">
<path fill-rule="evenodd" clip-rule="evenodd" d="M19 0.446411C29.4937 0.446411 38 8.56496 38 18.5803C38 28.5957 29.4937 36.7142 19 36.7142C15.7661 36.7187 12.585 35.9321 9.76031 34.4293L9.18081 34.1066L3.42002 35.7241C3.10652 35.8123 2.77463 35.8226 2.4558 35.754C2.13696 35.6854 1.84176 35.5403 1.59818 35.3323C1.35459 35.1244 1.17069 34.8605 1.06391 34.5657C0.957127 34.2709 0.931004 33.9549 0.988016 33.6478L1.03742 33.4501L2.73222 27.9519C0.940438 25.1254 -0.00458668 21.8839 1.67381e-05 18.5803C1.67381e-05 8.56496 8.50631 0.446411 19 0.446411ZM14.8067 14.5782L9.10671 20.0183C8.92524 20.1856 8.7805 20.3857 8.68092 20.6069C8.58134 20.8282 8.52893 21.0661 8.52674 21.3069C8.52454 21.5477 8.57262 21.7865 8.66815 22.0093C8.76368 22.2322 8.90477 22.4347 9.08316 22.6049C9.26156 22.7752 9.4737 22.9099 9.7072 23.001C9.9407 23.0922 10.1909 23.1381 10.4432 23.136C10.6955 23.1339 10.9448 23.0839 11.1766 22.9888C11.4084 22.8938 11.618 22.7557 11.7933 22.5825L16.15 18.4244L20.5067 22.5825C20.863 22.9224 21.3462 23.1134 21.85 23.1134C22.3538 23.1134 22.837 22.9224 23.1933 22.5825L28.8933 17.1423C29.2394 16.8003 29.4309 16.3422 29.4266 15.8668C29.4223 15.3913 29.2224 14.9365 28.8702 14.6002C28.5179 14.264 28.0413 14.0733 27.5432 14.0692C27.045 14.0651 26.565 14.2478 26.2067 14.5782L21.85 18.7363L17.4933 14.5782C17.137 14.2382 16.6538 14.0472 16.15 14.0472C15.6462 14.0472 15.163 14.2382 14.8067 14.5782Z" fill="#273AAA"/>
</svg>
