<svg width="72" height="71" viewBox="0 0 72 71" fill="none" xmlns="http://www.w3.org/2000/svg">
<g clip-path="url(#clip0_188_569)">
<path d="M36.2032 14.4872C40.5029 7.35119 48.319 2.5599 56.5184 1.99922C60.9014 1.69339 65.7511 2.79777 68.4675 6.31477C70.4341 8.88032 70.9674 12.3294 70.784 15.5915C70.1174 26.6183 62.268 35.5892 55.2685 44.0334C48.169 52.6136 42.2028 60.0214 36.1032 69.3661" fill="#FC4D5C"/>
<path d="M37.1031 15.0138C40.7029 9.22011 46.4691 5.05746 53.052 3.56231C59.6348 2.06716 68.1676 3.56231 69.5508 11.6158C70.7674 18.6158 67.4843 25.7178 63.7512 31.3756C59.7182 37.5091 54.7019 42.963 50.0855 48.6548C44.8192 55.1451 39.7696 61.8053 35.1866 68.8224C34.4367 69.9607 36.2365 71.0311 36.9865 69.8928C41.9028 62.4 47.3357 55.298 53.002 48.3829C58.035 42.2324 63.5512 36.2688 67.4843 29.2857C70.884 23.2372 73.5338 15.0648 70.7507 8.25166C67.9676 1.43851 60.6848 0.249186 54.5019 1.14968C46.6191 2.30502 39.5696 7.1133 35.3199 13.9434C34.6033 15.0988 36.4032 16.1692 37.1198 15.0138H37.1031Z" fill="#FC4D5C"/>
<path d="M36.3699 14.4871C32.0535 7.35109 24.2541 2.54281 16.0547 1.98213C11.6716 1.6763 6.82199 2.78068 4.10552 6.29769C2.13899 8.86323 1.6057 12.3123 1.78902 15.5744C2.45564 26.6012 10.3051 35.5721 17.3046 44.0163C24.4041 52.5965 29.987 60.0043 36.0865 69.349" fill="#FC4D5C"/>
<path d="M37.2698 13.9434C33.5034 7.87785 27.5538 3.40937 20.7043 1.65936C14.6381 0.13023 6.67201 0.504018 2.83895 6.29774C-0.994103 12.0915 0.972422 20.9095 3.85555 26.9241C7.20531 33.9241 12.4716 39.7688 17.3379 45.6814C23.7208 53.4291 29.7037 61.4655 35.2033 69.8928C35.9366 71.0311 37.7531 69.9607 37.0032 68.8224C33.0034 62.7058 28.7704 56.7592 24.2707 50.9994C19.7711 45.2397 14.6881 39.6499 10.3551 33.6183C6.37203 28.0624 2.88895 21.657 2.80562 14.606C2.75563 10.9021 3.85555 7.14726 7.03865 5.04045C9.83845 3.17151 13.4215 2.79772 16.688 3.12054C24.3541 3.86811 31.3702 8.43853 35.4699 15.0308C36.1866 16.1861 37.9864 15.1157 37.2698 13.9604V13.9434Z" fill="#FC4D5C"/>
</g>
<defs>
<clipPath id="clip0_188_569">
<rect width="71.2782" height="69.4737" fill="white" transform="translate(0.639099 0.894775)"/>
</clipPath>
</defs>
</svg>
