<svg width="1274" height="46" viewBox="0 0 1274 46" fill="none" xmlns="http://www.w3.org/2000/svg">
<path d="M0.132123 45.5233C55.4352 15.7721 120.269 -3.32193 185.779 0.47714C202.998 1.283 220.179 3.83216 236.74 7.92727C263.151 14.4564 287.475 25.9687 313.773 32.3828C339.695 39.0764 367.347 40.9019 394.246 39.175C421.71 38.0074 447.35 29.3731 472.313 19.8179C494.363 11.5783 518.067 6.46355 542.034 5.1972C572.844 3.6677 604.33 5.98662 633.241 15.9859C658.693 24.9655 684.07 32.6294 711.628 34.0603C735.087 35.524 759.242 34.899 782.307 30.6395C798.925 27.5147 814.639 22.2683 830.73 17.0713C850.017 10.7067 870.412 6.06885 891.034 4.27621C909.7 2.91118 929.287 2.96052 947.916 4.62158C990.869 8.07528 1029.74 26.4128 1072.32 31.1986C1139.78 40.0467 1209.2 32.6788 1273.64 13.5519C1273.96 13.4367 1274.17 13.9137 1273.83 14.0124C1248.19 22.3341 1221.74 28.9126 1194.71 33.0735C1164.32 37.7113 1133.24 39.6026 1102.41 38.0402C1078.37 36.9219 1054.37 33.8465 1031.15 28.1561C1004.87 21.6598 979.534 12.8118 952.333 10.2462C939.212 8.74958 925.114 8.30553 911.843 8.56867C898.553 8.71668 884.624 9.85147 871.597 12.0388C841.295 16.7095 813.643 29.7349 783.398 35.1293C766.686 38.1225 748.922 39.2573 731.873 38.8954C711.214 38.6323 690.443 36.5107 670.611 31.2315C657.359 27.8107 644.764 22.8769 632.132 18.5186C606.943 9.53899 579.592 5.8386 552.354 6.64446C525.06 6.67735 498.01 11.6934 473.065 21.3967C448.121 31.0671 422.104 40.2111 394.528 41.9051C387.817 42.5794 380.674 42.6781 373.926 42.9083C368.813 42.8096 358.549 42.859 353.286 42.3327C325.691 41.1321 298.941 33.4189 273.658 24.2583C248.507 15.1143 222.811 7.56545 195.648 5.14786C141.379 0.148217 86.4891 10.3284 36.957 29.8171C24.5316 34.7346 12.3883 40.1947 0.41409 45.9509C0.113326 46.1153 -0.187439 45.6713 0.132123 45.5233Z" fill="#33449B"/>
</svg>
