<?xml version="1.0" encoding="UTF-8"?><svg id="Layer_1" xmlns="http://www.w3.org/2000/svg" width="1802.01" height="114.25" viewBox="0 0 1802.01 114.25"><defs><style>.cls-1{fill:#273aaa;stroke-width:0px;}</style></defs><path class="cls-1" d="M0,110.26c21.43-1.3,40.87-11.45,59.39-21.53,36.62-20.65,75.28-44.94,119.04-43.04,32.35,1.34,63.33,12.71,91.19,28.69,18.53,10.24,36.5,21.95,56.56,28.85,40.6,14.2,86.11,3.53,115.92-27.44,15.27-14.8,28-32.12,43.9-46.44,23.95-22.59,56.81-32.95,89.39-28.21,65.48,10.23,105.82,70.37,162.97,98.03,40.12,20.21,84.08,14.59,119.65-12.13,17.22-12.54,31.7-28.23,46.87-43.12,19.71-19.44,42.68-38.28,71.47-24.5,24.92,12.51,34.24,41.02,48.29,63.05,5.5,8.7,12,17.32,21.12,22.3,15.01,7.9,29.81,4.03,41.96-7.16,11.82-10.7,21.21-23.67,33.01-34.62,15.61-15.07,35.93-25.81,57.86-27.17,21.98-1.66,42.89,8.32,60.87,19.88,36.79,24.26,68.06,47.96,113.58,53.24,75.35,10.08,111.42-40.57,176.29-62.56,10.15-3.5,20.56-6.22,31.11-8.13,10.6-1.86,21.55-3.74,32.23-1.65,10.71,1.83,20.85,5.65,30.64,9.91,19.54,8.64,38.09,19.13,57.22,28.53,37.89,19.02,78.68,34.07,121.49,35.25,0,0,0,.4,0,.4-21.34-.34-42.56-3.97-63.01-10.05-30.78-9.03-59.48-23.58-87.96-38.03-21.13-10.23-42.79-22.4-66.61-23.89-7.89-.3-15.67,1.31-23.42,2.63-31.45,5.58-60.37,19.74-87.45,36.29-18.34,10.92-36.68,22.39-57.08,29.3-30.73,10.67-64.77,9.11-95.49-.76-20.52-6.57-39.38-17.4-57.22-29.23-25.84-16.72-52.41-39.09-84.93-37.06-20.98,1.25-40.41,11.49-55.47,25.93-11.68,10.76-21.26,23.88-33.2,34.59-13.24,12.12-29.74,16.24-46.1,7.47-18.85-10.88-27.34-33.7-37.89-51.56-9.94-17.98-24-36.49-45.87-38.67-10.42-1.26-20.69,2.25-29.47,7.77-8.91,5.56-16.78,12.75-24.45,20.08-15.29,14.8-29.99,30.48-47.38,42.94-36.22,26.72-80.62,32.43-121.2,11.85-48.04-23.48-82.92-67.51-132.3-88.51-39.68-17.26-86.03-10.52-117.44,19.86-27.31,25.55-46.85,59.76-83.56,73.66-25.22,9.7-53.96,10.2-79.43,1.17-20.33-7.06-38.38-18.91-57-29.29-27.45-15.84-57.91-27.17-89.74-28.82-21.16-1.02-42.16,4.22-61.58,12.43-29.46,12.18-55.89,31.06-85.61,42.86-9.94,3.84-20.42,6.63-31.12,7.03,0,0-.02-.4-.02-.4h0Z"/></svg>